<svg width="225" height="118" viewBox="0 0 225 118" fill="none" xmlns="http://www.w3.org/2000/svg">
<rect x="1" y="1.06299" width="223" height="115" rx="11" stroke="#EBEBEC" stroke-width="2"/>
<path d="M58.872 51V42.104H55.576V40.536H64.024V42.104H60.728V51H58.872ZM65.9857 54.232C65.7724 54.232 65.5697 54.216 65.3777 54.184C65.1857 54.1627 65.0151 54.1253 64.8657 54.072L65.2177 52.632C65.3244 52.664 65.4311 52.6907 65.5377 52.712C65.6444 52.7333 65.7564 52.744 65.8737 52.744C66.3751 52.744 66.7751 52.616 67.0738 52.36C67.3724 52.1147 67.6017 51.7947 67.7617 51.4L67.9538 50.904L64.4337 43.144H66.2737L67.8898 47C68.0391 47.352 68.1831 47.7253 68.3218 48.12C68.4604 48.5147 68.6044 48.9093 68.7537 49.304H68.8177C68.9351 48.9307 69.0631 48.5467 69.2018 48.152C69.3404 47.7573 69.4737 47.3733 69.6017 47L71.0258 43.144H72.7698L69.4897 51.352C69.3191 51.8 69.1271 52.2 68.9138 52.552C68.7111 52.904 68.4711 53.2027 68.1937 53.448C67.9164 53.704 67.5964 53.896 67.2337 54.024C66.8711 54.1627 66.4551 54.232 65.9857 54.232ZM76.4595 51V44.6H73.5155V43.144H81.2595V44.6H78.3155V51H76.4595ZM90.975 51V43.144H93.135L94.335 46.312C94.4523 46.632 94.559 46.9413 94.655 47.24C94.7617 47.5387 94.863 47.8427 94.959 48.152H95.023C95.1403 47.8427 95.2523 47.5387 95.359 47.24C95.4657 46.9413 95.567 46.632 95.663 46.312L96.815 43.144H98.975V51H97.295V48.248C97.295 48.056 97.3003 47.832 97.311 47.576C97.3323 47.3093 97.3537 47.0373 97.375 46.76C97.3963 46.472 97.4177 46.1947 97.439 45.928C97.4603 45.6507 97.4817 45.4053 97.503 45.192H97.439C97.3217 45.5227 97.199 45.8693 97.071 46.232C96.943 46.5947 96.8203 46.9307 96.703 47.24L95.551 50.28H94.415L93.215 47.24C93.0977 46.9307 92.9803 46.5947 92.863 46.232C92.7457 45.8587 92.6283 45.512 92.511 45.192H92.447C92.4577 45.4053 92.4737 45.6507 92.495 45.928C92.527 46.1947 92.5483 46.472 92.559 46.76C92.5803 47.0373 92.5963 47.3093 92.607 47.576C92.6283 47.832 92.639 48.056 92.639 48.248V51H90.975ZM103.769 51.192C103.257 51.192 102.761 51.1013 102.281 50.92C101.801 50.7387 101.379 50.472 101.017 50.12C100.654 49.768 100.361 49.336 100.137 48.824C99.9234 48.312 99.8168 47.7307 99.8168 47.08C99.8168 46.4293 99.9234 45.848 100.137 45.336C100.361 44.824 100.654 44.392 101.017 44.04C101.379 43.688 101.801 43.4213 102.281 43.24C102.761 43.048 103.257 42.952 103.769 42.952C104.281 42.952 104.777 43.048 105.257 43.24C105.737 43.4213 106.158 43.688 106.521 44.04C106.883 44.392 107.171 44.824 107.385 45.336C107.609 45.848 107.721 46.4293 107.721 47.08C107.721 47.7307 107.609 48.312 107.385 48.824C107.171 49.336 106.883 49.768 106.521 50.12C106.158 50.472 105.737 50.7387 105.257 50.92C104.777 51.1013 104.281 51.192 103.769 51.192ZM103.769 49.688C104.409 49.688 104.91 49.4533 105.273 48.984C105.635 48.504 105.817 47.8693 105.817 47.08C105.817 46.28 105.635 45.6453 105.273 45.176C104.91 44.696 104.409 44.456 103.769 44.456C103.129 44.456 102.627 44.696 102.265 45.176C101.902 45.6453 101.721 46.28 101.721 47.08C101.721 47.8693 101.902 48.504 102.265 48.984C102.627 49.4533 103.129 49.688 103.769 49.688ZM107.827 51L109.779 46.76L109.347 45.544C109.219 45.2027 109.08 44.9787 108.931 44.872C108.792 44.7653 108.637 44.712 108.467 44.712C108.36 44.712 108.259 44.728 108.163 44.76L107.939 43.032C108.003 43 108.077 42.9787 108.163 42.968C108.259 42.9573 108.355 42.952 108.451 42.952C108.909 42.952 109.304 43.064 109.635 43.288C109.976 43.5013 110.264 43.928 110.499 44.568L111.107 46.296H111.795V43.144H113.331V46.296H114.019L114.627 44.568C114.861 43.928 115.144 43.5013 115.475 43.288C115.816 43.064 116.216 42.952 116.675 42.952C116.771 42.952 116.861 42.9573 116.947 42.968C117.043 42.9787 117.123 43 117.187 43.032L116.963 44.76C116.867 44.728 116.765 44.712 116.659 44.712C116.488 44.712 116.328 44.7653 116.179 44.872C116.04 44.9787 115.907 45.2027 115.779 45.544L115.347 46.76L117.299 51H115.523L114.163 47.608H113.331V51H111.795V47.608H110.963L109.603 51H107.827ZM121.836 51.192C121.239 51.192 120.679 51.1013 120.156 50.92C119.634 50.728 119.175 50.456 118.78 50.104C118.396 49.752 118.092 49.32 117.868 48.808C117.644 48.296 117.532 47.7147 117.532 47.064C117.532 46.424 117.644 45.8533 117.868 45.352C118.092 44.84 118.391 44.408 118.764 44.056C119.148 43.6933 119.58 43.4213 120.06 43.24C120.551 43.048 121.063 42.952 121.596 42.952C122.183 42.952 122.7 43.048 123.148 43.24C123.596 43.4213 123.975 43.6773 124.284 44.008C124.594 44.328 124.828 44.7173 124.988 45.176C125.148 45.6347 125.228 46.136 125.228 46.68C125.228 46.8613 125.218 47.0373 125.196 47.208C125.186 47.368 125.17 47.5013 125.148 47.608H119.372C119.479 48.344 119.772 48.888 120.252 49.24C120.732 49.592 121.34 49.768 122.076 49.768C122.492 49.768 122.876 49.7093 123.228 49.592C123.58 49.4747 123.932 49.3147 124.284 49.112L124.908 50.264C124.492 50.5413 124.018 50.7653 123.484 50.936C122.962 51.1067 122.412 51.192 121.836 51.192ZM121.644 44.376C121.1 44.376 120.62 44.536 120.204 44.856C119.799 45.176 119.538 45.656 119.42 46.296H123.596C123.532 45.656 123.33 45.176 122.988 44.856C122.658 44.536 122.21 44.376 121.644 44.376ZM139.088 51.192C138.469 51.192 137.92 51.08 137.44 50.856C136.96 50.6213 136.554 50.2907 136.224 49.864C135.904 49.4267 135.658 48.8987 135.488 48.28C135.317 47.6507 135.232 46.9467 135.232 46.168C135.232 44.9307 135.349 43.9227 135.584 43.144C135.829 42.3547 136.17 41.7307 136.608 41.272C137.045 40.8027 137.568 40.4613 138.176 40.248C138.794 40.0347 139.477 39.8747 140.224 39.768C140.458 39.736 140.661 39.704 140.832 39.672C141.013 39.64 141.173 39.608 141.312 39.576C141.45 39.544 141.573 39.5067 141.68 39.464C141.797 39.4213 141.92 39.3733 142.048 39.32L142.416 40.952C142.202 41.1013 141.936 41.2187 141.616 41.304C141.306 41.3787 140.97 41.4427 140.608 41.496C140.01 41.5813 139.498 41.672 139.072 41.768C138.656 41.8533 138.309 42.0027 138.032 42.216C137.754 42.4187 137.541 42.7067 137.392 43.08C137.242 43.4533 137.136 43.9653 137.072 44.616C137.381 44.2427 137.754 43.96 138.192 43.768C138.629 43.576 139.088 43.48 139.568 43.48C140.016 43.48 140.432 43.56 140.816 43.72C141.2 43.88 141.53 44.12 141.808 44.44C142.096 44.7493 142.32 45.1333 142.48 45.592C142.64 46.04 142.72 46.5573 142.72 47.144C142.72 47.752 142.629 48.3067 142.448 48.808C142.266 49.3093 142.01 49.736 141.68 50.088C141.36 50.44 140.976 50.712 140.528 50.904C140.09 51.096 139.61 51.192 139.088 51.192ZM139.072 49.688C139.648 49.688 140.085 49.4587 140.384 49C140.682 48.5307 140.832 47.912 140.832 47.144C140.832 46.376 140.677 45.8053 140.368 45.432C140.058 45.0587 139.621 44.872 139.056 44.872C138.714 44.872 138.362 44.9573 138 45.128C137.648 45.288 137.312 45.592 136.992 46.04V46.568C136.992 47.56 137.168 48.328 137.52 48.872C137.882 49.416 138.4 49.688 139.072 49.688ZM145.13 54.232C144.916 54.232 144.714 54.216 144.522 54.184C144.33 54.1627 144.159 54.1253 144.01 54.072L144.362 52.632C144.468 52.664 144.575 52.6907 144.682 52.712C144.788 52.7333 144.9 52.744 145.018 52.744C145.519 52.744 145.919 52.616 146.218 52.36C146.516 52.1147 146.746 51.7947 146.906 51.4L147.098 50.904L143.578 43.144H145.418L147.034 47C147.183 47.352 147.327 47.7253 147.466 48.12C147.604 48.5147 147.748 48.9093 147.898 49.304H147.962C148.079 48.9307 148.207 48.5467 148.346 48.152C148.484 47.7573 148.618 47.3733 148.746 47L150.17 43.144H151.914L148.634 51.352C148.463 51.8 148.271 52.2 148.058 52.552C147.855 52.904 147.615 53.2027 147.338 53.448C147.06 53.704 146.74 53.896 146.378 54.024C146.015 54.1627 145.599 54.232 145.13 54.232ZM155.603 51V44.6H152.659V43.144H160.403V44.6H157.459V51H155.603ZM161.901 51V43.144H163.693V45.848C163.693 46.2533 163.672 46.7067 163.629 47.208C163.597 47.6987 163.565 48.1947 163.533 48.696H163.581C163.72 48.4507 163.885 48.1733 164.077 47.864C164.269 47.544 164.429 47.2667 164.557 47.032L167.053 43.144H168.749V51H166.957V48.296C166.957 47.8907 166.973 47.4427 167.005 46.952C167.048 46.4507 167.09 45.9493 167.133 45.448H167.069C166.93 45.6933 166.765 45.976 166.573 46.296C166.392 46.6053 166.232 46.8773 166.093 47.112L163.597 51H161.901ZM56.504 71V63.144H60.168C60.6267 63.144 61.048 63.1813 61.432 63.256C61.8267 63.32 62.168 63.432 62.456 63.592C62.744 63.752 62.968 63.9653 63.128 64.232C63.288 64.488 63.368 64.8027 63.368 65.176C63.368 65.56 63.256 65.9013 63.032 66.2C62.808 66.488 62.472 66.696 62.024 66.824V66.888C62.504 67.0053 62.8987 67.208 63.208 67.496C63.528 67.784 63.688 68.2 63.688 68.744C63.688 69.1387 63.6027 69.48 63.432 69.768C63.2613 70.0453 63.0267 70.28 62.728 70.472C62.4293 70.6533 62.072 70.7867 61.656 70.872C61.2507 70.9573 60.8133 71 60.344 71H56.504ZM58.312 66.296H59.992C60.568 66.296 60.9787 66.216 61.224 66.056C61.4693 65.896 61.592 65.6667 61.592 65.368C61.592 65.0587 61.4693 64.8347 61.224 64.696C60.9893 64.5467 60.5947 64.472 60.04 64.472H58.312V66.296ZM58.312 69.672H60.2C60.7973 69.672 61.224 69.5867 61.48 69.416C61.7467 69.2347 61.88 68.9733 61.88 68.632C61.88 68.3227 61.736 68.0773 61.448 67.896C61.1707 67.704 60.7387 67.608 60.152 67.608H58.312V69.672ZM67.5538 71.192C67.1698 71.192 66.8178 71.1333 66.4978 71.016C66.1778 70.9093 65.9004 70.7547 65.6657 70.552C65.4311 70.3493 65.2497 70.1093 65.1217 69.832C64.9937 69.544 64.9297 69.2293 64.9297 68.888C64.9297 68.4507 65.0311 68.0667 65.2337 67.736C65.4364 67.3947 65.7564 67.1067 66.1937 66.872C66.6311 66.6373 67.1911 66.4453 67.8738 66.296C68.5564 66.1467 69.3831 66.04 70.3538 65.976C70.3218 65.528 70.1617 65.16 69.8738 64.872C69.5858 64.584 69.1218 64.44 68.4818 64.44C68.0338 64.44 67.5911 64.5253 67.1537 64.696C66.7271 64.856 66.3111 65.048 65.9057 65.272L65.2337 64.04C65.7137 63.7627 66.2631 63.512 66.8817 63.288C67.5004 63.064 68.1458 62.952 68.8177 62.952C69.9164 62.952 70.7538 63.2453 71.3298 63.832C71.9058 64.408 72.1938 65.2453 72.1938 66.344V71H70.6898L70.5458 70.024H70.4978C70.0818 70.344 69.6178 70.6213 69.1058 70.856C68.6044 71.08 68.0871 71.192 67.5538 71.192ZM68.1137 69.752C68.5084 69.752 68.8871 69.6667 69.2498 69.496C69.6231 69.3147 69.9911 69.08 70.3538 68.792V67.128C69.6498 67.1813 69.0631 67.256 68.5938 67.352C68.1244 67.4373 67.7511 67.5493 67.4737 67.688C67.1964 67.8267 66.9991 67.9867 66.8817 68.168C66.7644 68.3387 66.7057 68.5307 66.7057 68.744C66.7057 69.096 66.8391 69.352 67.1058 69.512C67.3831 69.672 67.7191 69.752 68.1137 69.752ZM73.3235 71V63.144H75.0515V69.528H76.6035V63.144H78.1715V69.528H79.7235V63.144H81.4515V71H73.3235ZM85.1413 71.192C84.7573 71.192 84.4053 71.1333 84.0853 71.016C83.7653 70.9093 83.4879 70.7547 83.2533 70.552C83.0186 70.3493 82.8373 70.1093 82.7093 69.832C82.5813 69.544 82.5173 69.2293 82.5173 68.888C82.5173 68.4507 82.6186 68.0667 82.8213 67.736C83.0239 67.3947 83.3439 67.1067 83.7813 66.872C84.2186 66.6373 84.7786 66.4453 85.4613 66.296C86.1439 66.1467 86.9706 66.04 87.9413 65.976C87.9093 65.528 87.7493 65.16 87.4613 64.872C87.1733 64.584 86.7093 64.44 86.0693 64.44C85.6213 64.44 85.1786 64.5253 84.7413 64.696C84.3146 64.856 83.8986 65.048 83.4933 65.272L82.8213 64.04C83.3013 63.7627 83.8506 63.512 84.4693 63.288C85.0879 63.064 85.7333 62.952 86.4053 62.952C87.5039 62.952 88.3413 63.2453 88.9173 63.832C89.4933 64.408 89.7813 65.2453 89.7813 66.344V71H88.2773L88.1333 70.024H88.0853C87.6693 70.344 87.2053 70.6213 86.6933 70.856C86.1919 71.08 85.6746 71.192 85.1413 71.192ZM85.7013 69.752C86.0959 69.752 86.4746 69.6667 86.8373 69.496C87.2106 69.3147 87.5786 69.08 87.9413 68.792V67.128C87.2373 67.1813 86.6506 67.256 86.1813 67.352C85.7119 67.4373 85.3386 67.5493 85.0613 67.688C84.7839 67.8267 84.5866 67.9867 84.4693 68.168C84.3519 68.3387 84.2933 68.5307 84.2933 68.744C84.2933 69.096 84.4266 69.352 84.6933 69.512C84.9706 69.672 85.3066 69.752 85.7013 69.752ZM100.457 71V63.144H102.297V66.2H103.945L104.777 64.616C104.947 64.2853 105.113 64.0133 105.273 63.8C105.443 63.5867 105.619 63.416 105.801 63.288C105.982 63.16 106.174 63.0747 106.377 63.032C106.59 62.9787 106.819 62.952 107.065 62.952C107.321 62.952 107.539 62.9893 107.721 63.064L107.417 64.776C107.353 64.7547 107.294 64.7387 107.241 64.728C107.187 64.7173 107.118 64.712 107.033 64.712C106.841 64.712 106.665 64.7707 106.505 64.888C106.355 64.9947 106.179 65.2453 105.977 65.64L105.337 66.888L108.105 71H106.073L103.945 67.672H102.297V71H100.457ZM112.563 71.192C112.051 71.192 111.555 71.1013 111.075 70.92C110.595 70.7387 110.173 70.472 109.811 70.12C109.448 69.768 109.155 69.336 108.931 68.824C108.717 68.312 108.611 67.7307 108.611 67.08C108.611 66.4293 108.717 65.848 108.931 65.336C109.155 64.824 109.448 64.392 109.811 64.04C110.173 63.688 110.595 63.4213 111.075 63.24C111.555 63.048 112.051 62.952 112.563 62.952C113.075 62.952 113.571 63.048 114.051 63.24C114.531 63.4213 114.952 63.688 115.315 64.04C115.677 64.392 115.965 64.824 116.179 65.336C116.403 65.848 116.515 66.4293 116.515 67.08C116.515 67.7307 116.403 68.312 116.179 68.824C115.965 69.336 115.677 69.768 115.315 70.12C114.952 70.472 114.531 70.7387 114.051 70.92C113.571 71.1013 113.075 71.192 112.563 71.192ZM112.563 69.688C113.203 69.688 113.704 69.4533 114.067 68.984C114.429 68.504 114.611 67.8693 114.611 67.08C114.611 66.28 114.429 65.6453 114.067 65.176C113.704 64.696 113.203 64.456 112.563 64.456C111.923 64.456 111.421 64.696 111.059 65.176C110.696 65.6453 110.515 66.28 110.515 67.08C110.515 67.8693 110.696 68.504 111.059 68.984C111.421 69.4533 111.923 69.688 112.563 69.688ZM117.356 71V63.144H119.516L120.716 66.312C120.834 66.632 120.94 66.9413 121.036 67.24C121.143 67.5387 121.244 67.8427 121.34 68.152H121.404C121.522 67.8427 121.634 67.5387 121.74 67.24C121.847 66.9413 121.948 66.632 122.044 66.312L123.196 63.144H125.356V71H123.676V68.248C123.676 68.056 123.682 67.832 123.692 67.576C123.714 67.3093 123.735 67.0373 123.756 66.76C123.778 66.472 123.799 66.1947 123.82 65.928C123.842 65.6507 123.863 65.4053 123.884 65.192H123.82C123.703 65.5227 123.58 65.8693 123.452 66.232C123.324 66.5947 123.202 66.9307 123.084 67.24L121.932 70.28H120.796L119.596 67.24C119.479 66.9307 119.362 66.5947 119.244 66.232C119.127 65.8587 119.01 65.512 118.892 65.192H118.828C118.839 65.4053 118.855 65.6507 118.876 65.928C118.908 66.1947 118.93 66.472 118.94 66.76C118.962 67.0373 118.978 67.3093 118.988 67.576C119.01 67.832 119.02 68.056 119.02 68.248V71H117.356ZM126.662 71V63.144H133.638V71H131.782V64.6H128.518V71H126.662ZM137.904 71.192C137.52 71.192 137.168 71.1333 136.848 71.016C136.528 70.9093 136.25 70.7547 136.016 70.552C135.781 70.3493 135.6 70.1093 135.472 69.832C135.344 69.544 135.28 69.2293 135.28 68.888C135.28 68.4507 135.381 68.0667 135.584 67.736C135.786 67.3947 136.106 67.1067 136.544 66.872C136.981 66.6373 137.541 66.4453 138.224 66.296C138.906 66.1467 139.733 66.04 140.704 65.976C140.672 65.528 140.512 65.16 140.224 64.872C139.936 64.584 139.472 64.44 138.832 64.44C138.384 64.44 137.941 64.5253 137.504 64.696C137.077 64.856 136.661 65.048 136.256 65.272L135.584 64.04C136.064 63.7627 136.613 63.512 137.232 63.288C137.85 63.064 138.496 62.952 139.168 62.952C140.266 62.952 141.104 63.2453 141.68 63.832C142.256 64.408 142.544 65.2453 142.544 66.344V71H141.04L140.896 70.024H140.848C140.432 70.344 139.968 70.6213 139.456 70.856C138.954 71.08 138.437 71.192 137.904 71.192ZM138.464 69.752C138.858 69.752 139.237 69.6667 139.6 69.496C139.973 69.3147 140.341 69.08 140.704 68.792V67.128C140 67.1813 139.413 67.256 138.944 67.352C138.474 67.4373 138.101 67.5493 137.824 67.688C137.546 67.8267 137.349 67.9867 137.232 68.168C137.114 68.3387 137.056 68.5307 137.056 68.744C137.056 69.096 137.189 69.352 137.456 69.512C137.733 69.672 138.069 69.752 138.464 69.752ZM144.25 71V63.144H146.106V66.152H149.37V63.144H151.226V71H149.37V67.768H146.106V71H144.25ZM156.483 71V64.6H153.075V63.144H158.323V71H156.483ZM157.283 61.704C156.91 61.704 156.595 61.592 156.339 61.368C156.094 61.144 155.971 60.8453 155.971 60.472C155.971 60.0987 156.094 59.8 156.339 59.576C156.595 59.3413 156.91 59.224 157.283 59.224C157.657 59.224 157.966 59.3413 158.211 59.576C158.467 59.8 158.595 60.0987 158.595 60.472C158.595 60.8453 158.467 61.144 158.211 61.368C157.966 61.592 157.657 61.704 157.283 61.704ZM166.893 71V68.2H165.277L163.309 71H161.229L163.437 67.992C162.946 67.8213 162.53 67.544 162.189 67.16C161.858 66.776 161.693 66.2587 161.693 65.608C161.693 65.1493 161.773 64.7653 161.933 64.456C162.093 64.136 162.312 63.88 162.589 63.688C162.866 63.496 163.197 63.3573 163.581 63.272C163.965 63.1867 164.376 63.144 164.813 63.144H168.749V71H166.893ZM165.069 66.872H166.893V64.536H165.069C164.557 64.536 164.168 64.6267 163.901 64.808C163.645 64.9787 163.517 65.2613 163.517 65.656C163.517 66.4667 164.034 66.872 165.069 66.872Z" fill="white"/>
</svg>
