<svg width="2284" height="80" viewBox="0 0 2284 80" fill="none" xmlns="http://www.w3.org/2000/svg">
<path d="M457.574 39.8255V34.3936H481.599V39.8255H457.574ZM526.058 54.3452V28.4395H533.736V37.7885H542.197V28.4395H549.874V54.3452H542.197V44.4739H533.736V54.3452H526.058ZM573.723 54.9719C571.703 54.9719 569.806 54.676 568.03 54.084C566.289 53.4573 564.774 52.5694 563.486 51.4203C562.197 50.2713 561.188 48.8611 560.457 47.1898C559.725 45.4836 559.36 43.5512 559.36 41.3923C559.36 39.2684 559.725 37.3707 560.457 35.6994C561.223 33.9932 562.232 32.5656 563.486 31.4166C564.739 30.2327 566.167 29.3448 567.769 28.7529C569.405 28.1261 571.094 27.8128 572.835 27.8128C574.82 27.8128 576.578 28.1261 578.11 28.7529C579.642 29.3796 580.913 30.2501 581.923 31.3643C582.967 32.4786 583.751 33.8017 584.273 35.3338C584.795 36.831 585.056 38.4675 585.056 40.2433C585.056 40.9397 585.004 41.6187 584.9 42.2802C584.83 42.907 584.761 43.3771 584.691 43.6904H567.037C567.42 45.5707 568.273 46.946 569.597 47.8165C570.92 48.687 572.643 49.1223 574.767 49.1223C575.951 49.1223 577.065 48.9656 578.11 48.6522C579.189 48.3388 580.304 47.8862 581.453 47.2942L584.012 51.9426C582.515 52.8828 580.861 53.6314 579.05 54.1885C577.24 54.7108 575.464 54.9719 573.723 54.9719ZM573.096 33.6624C571.564 33.6624 570.276 34.0629 569.231 34.8637C568.221 35.6645 567.525 36.8832 567.142 38.5197H578.214C577.831 35.2815 576.125 33.6624 573.096 33.6624ZM628.627 63.9554V28.4395H634.895L635.469 31.051H635.626C636.67 30.1108 637.872 29.3448 639.23 28.7529C640.588 28.1261 641.963 27.8128 643.356 27.8128C644.957 27.8128 646.402 28.1261 647.691 28.7529C648.979 29.3796 650.076 30.2675 650.981 31.4166C651.886 32.5656 652.565 33.9584 653.018 35.5949C653.506 37.1966 653.749 38.9898 653.749 40.9745C653.749 43.203 653.436 45.1877 652.809 46.9286C652.182 48.6348 651.347 50.0972 650.302 51.3159C649.258 52.4998 648.056 53.4051 646.698 54.0318C645.375 54.6586 643.982 54.9719 642.52 54.9719C640.152 54.9719 638.028 54.0318 636.148 52.1516H635.939L636.305 56.3821V63.9554H628.627ZM640.744 48.7044C642.207 48.7044 643.425 48.1125 644.4 46.9286C645.375 45.71 645.863 43.7601 645.863 41.079C645.863 36.4132 644.278 34.0803 641.11 34.0803C639.473 34.0803 637.872 34.8811 636.305 36.4828V46.9809C637.036 47.6076 637.785 48.0603 638.551 48.3388C639.351 48.5826 640.083 48.7044 640.744 48.7044ZM674.725 54.9719C673.019 54.9719 671.365 54.676 669.763 54.084C668.196 53.4573 666.786 52.5694 665.533 51.4203C664.314 50.2713 663.339 48.8611 662.608 47.1898C661.877 45.4836 661.511 43.5512 661.511 41.3923C661.511 39.2335 661.877 37.3185 662.608 35.6471C663.339 33.941 664.314 32.5134 665.533 31.3643C666.786 30.2153 668.196 29.3448 669.763 28.7529C671.365 28.1261 673.019 27.8128 674.725 27.8128C676.431 27.8128 678.068 28.1261 679.635 28.7529C681.236 29.3448 682.646 30.2153 683.865 31.3643C685.119 32.5134 686.111 33.941 686.842 35.6471C687.573 37.3185 687.939 39.2335 687.939 41.3923C687.939 43.5512 687.573 45.4836 686.842 47.1898C686.111 48.8611 685.119 50.2713 683.865 51.4203C682.646 52.5694 681.236 53.4573 679.635 54.084C678.068 54.676 676.431 54.9719 674.725 54.9719ZM674.725 48.7567C676.501 48.7567 677.824 48.0951 678.694 46.772C679.6 45.4488 680.052 43.6556 680.052 41.3923C680.052 39.1291 679.6 37.3359 678.694 36.0127C677.824 34.6896 676.501 34.028 674.725 34.028C672.949 34.028 671.609 34.6896 670.703 36.0127C669.833 37.3359 669.398 39.1291 669.398 41.3923C669.398 43.6556 669.833 45.4488 670.703 46.772C671.609 48.0951 672.949 48.7567 674.725 48.7567ZM711.161 54.9719C709.106 54.9719 707.209 54.676 705.468 54.084C703.727 53.4573 702.195 52.5694 700.871 51.4203C699.583 50.2713 698.573 48.8611 697.842 47.1898C697.111 45.4836 696.745 43.5512 696.745 41.3923C696.745 39.2335 697.146 37.3185 697.947 35.6471C698.782 33.941 699.879 32.5134 701.237 31.3643C702.63 30.2153 704.231 29.3448 706.042 28.7529C707.853 28.1261 709.75 27.8128 711.735 27.8128C713.789 27.8128 715.635 28.1435 717.271 28.8051C718.943 29.4667 720.335 30.3023 721.45 31.3121L717.898 36.065C715.983 34.707 714.068 34.028 712.153 34.028C709.924 34.028 708.114 34.6896 706.721 36.0127C705.328 37.3359 704.632 39.1291 704.632 41.3923C704.632 43.6556 705.293 45.4488 706.617 46.772C707.975 48.0951 709.733 48.7567 711.892 48.7567C713.25 48.7567 714.486 48.5129 715.6 48.0255C716.749 47.538 717.794 46.9635 718.734 46.3019L721.815 51.1592C720.248 52.4823 718.525 53.4573 716.645 54.084C714.764 54.676 712.936 54.9719 711.161 54.9719ZM739.239 54.3452V34.4459H730.047V28.4395H756.162V34.4459H746.969V54.3452H739.239ZM778.861 54.9719C776.841 54.9719 774.944 54.676 773.168 54.084C771.427 53.4573 769.912 52.5694 768.624 51.4203C767.336 50.2713 766.326 48.8611 765.595 47.1898C764.864 45.4836 764.498 43.5512 764.498 41.3923C764.498 39.2684 764.864 37.3707 765.595 35.6994C766.361 33.9932 767.371 32.5656 768.624 31.4166C769.878 30.2327 771.305 29.3448 772.907 28.7529C774.543 28.1261 776.232 27.8128 777.973 27.8128C779.958 27.8128 781.716 28.1261 783.248 28.7529C784.78 29.3796 786.051 30.2501 787.061 31.3643C788.106 32.4786 788.889 33.8017 789.411 35.3338C789.934 36.831 790.195 38.4675 790.195 40.2433C790.195 40.9397 790.143 41.6187 790.038 42.2802C789.968 42.907 789.899 43.3771 789.829 43.6904H772.176C772.559 45.5707 773.412 46.946 774.735 47.8165C776.058 48.687 777.782 49.1223 779.906 49.1223C781.089 49.1223 782.204 48.9656 783.248 48.6522C784.328 48.3388 785.442 47.8862 786.591 47.2942L789.15 51.9426C787.653 52.8828 785.999 53.6314 784.188 54.1885C782.378 54.7108 780.602 54.9719 778.861 54.9719ZM778.234 33.6624C776.702 33.6624 775.414 34.0629 774.369 34.8637C773.36 35.6645 772.663 36.8832 772.28 38.5197H783.353C782.97 35.2815 781.264 33.6624 778.234 33.6624ZM834.392 54.3452V28.4395H846.614C848.146 28.4395 849.573 28.5614 850.896 28.8051C852.22 29.014 853.369 29.397 854.344 29.9542C855.353 30.4764 856.137 31.1728 856.694 32.0433C857.286 32.9138 857.582 33.9932 857.582 35.2815C857.582 36.3958 857.234 37.4577 856.537 38.4675C855.876 39.4773 854.761 40.1911 853.195 40.6089V40.8178C854.831 41.2357 856.137 41.9146 857.112 42.8548C858.087 43.7601 858.574 45.1006 858.574 46.8764C858.574 48.1996 858.278 49.3486 857.686 50.3235C857.094 51.2637 856.276 52.0297 855.232 52.6216C854.222 53.2136 853.02 53.6488 851.628 53.9274C850.27 54.2059 848.825 54.3452 847.293 54.3452H834.392ZM841.913 38.5197H846.144C847.606 38.5197 848.651 38.3108 849.277 37.893C849.904 37.4752 850.218 36.8658 850.218 36.065C850.218 35.2641 849.904 34.6548 849.277 34.2369C848.685 33.8191 847.658 33.6102 846.196 33.6102H841.913V38.5197ZM841.913 49.1745H846.823C848.389 49.1745 849.486 48.9308 850.113 48.4433C850.775 47.921 851.105 47.2246 851.105 46.3541C851.105 45.5881 850.757 44.9613 850.061 44.4739C849.399 43.9516 848.302 43.6904 846.77 43.6904H841.913V49.1745ZM910.188 54.3452V34.4459H900.996V28.4395H927.11V34.4459H917.918V54.3452H910.188ZM949.81 54.9719C947.79 54.9719 945.892 54.676 944.117 54.084C942.376 53.4573 940.861 52.5694 939.573 51.4203C938.284 50.2713 937.275 48.8611 936.543 47.1898C935.812 45.4836 935.447 43.5512 935.447 41.3923C935.447 39.2684 935.812 37.3707 936.543 35.6994C937.309 33.9932 938.319 32.5656 939.573 31.4166C940.826 30.2327 942.254 29.3448 943.855 28.7529C945.492 28.1261 947.181 27.8128 948.922 27.8128C950.906 27.8128 952.665 28.1261 954.197 28.7529C955.729 29.3796 957 30.2501 958.01 31.3643C959.054 32.4786 959.838 33.8017 960.36 35.3338C960.882 36.831 961.143 38.4675 961.143 40.2433C961.143 40.9397 961.091 41.6187 960.987 42.2802C960.917 42.907 960.847 43.3771 960.778 43.6904H943.124C943.507 45.5707 944.36 46.946 945.683 47.8165C947.007 48.687 948.73 49.1223 950.854 49.1223C952.038 49.1223 953.152 48.9656 954.197 48.6522C955.276 48.3388 956.39 47.8862 957.539 47.2942L960.099 51.9426C958.601 52.8828 956.948 53.6314 955.137 54.1885C953.326 54.7108 951.551 54.9719 949.81 54.9719ZM949.183 33.6624C947.651 33.6624 946.362 34.0629 945.318 34.8637C944.308 35.6645 943.612 36.8832 943.229 38.5197H954.301C953.918 35.2815 952.212 33.6624 949.183 33.6624ZM982.798 54.9719C978.655 54.9719 975.469 53.4921 973.24 50.5325C971.012 47.538 969.897 43.4119 969.897 38.1541C969.897 34.2892 970.298 31.1206 971.099 28.6484C971.9 26.1414 973.014 24.1393 974.441 22.6421C975.904 21.1448 977.645 20.048 979.664 19.3516C981.684 18.6204 983.912 18.0807 986.35 17.7325C987.951 17.5236 989.187 17.3147 990.058 17.1058C990.928 16.8969 991.781 16.6009 992.617 16.2179L994.08 22.9032C993.383 23.4255 992.478 23.8433 991.364 24.1567C990.284 24.4353 989.135 24.6616 987.916 24.8357C986.071 25.0794 984.522 25.3232 983.268 25.5669C982.049 25.8106 981.022 26.1937 980.187 26.7159C979.386 27.2382 978.776 27.9869 978.359 28.9618C977.941 29.9367 977.645 31.2599 977.471 32.9312C978.376 31.8866 979.49 31.1032 980.813 30.5809C982.136 30.0238 983.529 29.7452 984.992 29.7452C986.35 29.7452 987.638 30.0064 988.857 30.5287C990.11 31.0161 991.19 31.7648 992.095 32.7745C993 33.7495 993.714 34.9856 994.236 36.4828C994.793 37.98 995.072 39.721 995.072 41.7057C995.072 43.6904 994.759 45.501 994.132 47.1376C993.54 48.7741 992.704 50.1843 991.625 51.3681C990.545 52.5172 989.24 53.4051 987.708 54.0318C986.21 54.6586 984.574 54.9719 982.798 54.9719ZM982.746 48.7567C984.243 48.7567 985.357 48.1299 986.088 46.8764C986.82 45.6229 987.185 43.8993 987.185 41.7057C987.185 39.4076 986.785 37.7885 985.984 36.8484C985.183 35.8735 984.086 35.386 982.694 35.386C981.788 35.386 980.848 35.6297 979.873 36.1172C978.898 36.5699 978.01 37.4055 977.21 38.6242V39.9822C977.21 42.9418 977.697 45.1528 978.672 46.6153C979.647 48.0429 981.005 48.7567 982.746 48.7567ZM1018.19 54.9719C1016.17 54.9719 1014.27 54.676 1012.5 54.084C1010.76 53.4573 1009.24 52.5694 1007.95 51.4203C1006.66 50.2713 1005.65 48.8611 1004.92 47.1898C1004.19 45.4836 1003.83 43.5512 1003.83 41.3923C1003.83 39.2684 1004.19 37.3707 1004.92 35.6994C1005.69 33.9932 1006.7 32.5656 1007.95 31.4166C1009.21 30.2327 1010.63 29.3448 1012.23 28.7529C1013.87 28.1261 1015.56 27.8128 1017.3 27.8128C1019.29 27.8128 1021.04 28.1261 1022.58 28.7529C1024.11 29.3796 1025.38 30.2501 1026.39 31.3643C1027.43 32.4786 1028.22 33.8017 1028.74 35.3338C1029.26 36.831 1029.52 38.4675 1029.52 40.2433C1029.52 40.9397 1029.47 41.6187 1029.37 42.2802C1029.3 42.907 1029.23 43.3771 1029.16 43.6904H1011.5C1011.89 45.5707 1012.74 46.946 1014.06 47.8165C1015.39 48.687 1017.11 49.1223 1019.23 49.1223C1020.42 49.1223 1021.53 48.9656 1022.58 48.6522C1023.66 48.3388 1024.77 47.8862 1025.92 47.2942L1028.48 51.9426C1026.98 52.8828 1025.33 53.6314 1023.52 54.1885C1021.71 54.7108 1019.93 54.9719 1018.19 54.9719ZM1017.56 33.6624C1016.03 33.6624 1014.74 34.0629 1013.7 34.8637C1012.69 35.6645 1011.99 36.8832 1011.61 38.5197H1022.68C1022.3 35.2815 1020.59 33.6624 1017.56 33.6624ZM1050.81 54.9719C1049 54.9719 1047.54 54.3974 1046.42 53.2484C1045.31 52.0645 1044.75 50.6021 1044.75 48.8611C1044.75 47.9906 1044.89 47.1898 1045.17 46.4586C1045.48 45.6925 1045.9 45.031 1046.42 44.4739C1046.95 43.9168 1047.57 43.4815 1048.3 43.1681C1049.07 42.8548 1049.91 42.6981 1050.81 42.6981C1051.72 42.6981 1052.54 42.8548 1053.27 43.1681C1054.03 43.4815 1054.68 43.9168 1055.2 44.4739C1055.72 45.031 1056.12 45.6925 1056.4 46.4586C1056.71 47.1898 1056.87 47.9906 1056.87 48.8611C1056.87 50.6021 1056.31 52.0645 1055.2 53.2484C1054.08 54.3974 1052.62 54.9719 1050.81 54.9719ZM1085 54.9719C1083.19 54.9719 1081.73 54.3974 1080.61 53.2484C1079.5 52.0645 1078.94 50.6021 1078.94 48.8611C1078.94 47.9906 1079.08 47.1898 1079.36 46.4586C1079.67 45.6925 1080.09 45.031 1080.61 44.4739C1081.14 43.9168 1081.76 43.4815 1082.49 43.1681C1083.26 42.8548 1084.1 42.6981 1085 42.6981C1085.91 42.6981 1086.73 42.8548 1087.46 43.1681C1088.22 43.4815 1088.87 43.9168 1089.39 44.4739C1089.91 45.031 1090.31 45.6925 1090.59 46.4586C1090.9 47.1898 1091.06 47.9906 1091.06 48.8611C1091.06 50.6021 1090.5 52.0645 1089.39 53.2484C1088.27 54.3974 1086.81 54.9719 1085 54.9719ZM1119.19 54.9719C1117.38 54.9719 1115.92 54.3974 1114.8 53.2484C1113.69 52.0645 1113.13 50.6021 1113.13 48.8611C1113.13 47.9906 1113.27 47.1898 1113.55 46.4586C1113.86 45.6925 1114.28 45.031 1114.8 44.4739C1115.33 43.9168 1115.95 43.4815 1116.68 43.1681C1117.45 42.8548 1118.29 42.6981 1119.19 42.6981C1120.1 42.6981 1120.91 42.8548 1121.65 43.1681C1122.41 43.4815 1123.06 43.9168 1123.58 44.4739C1124.1 45.031 1124.5 45.6925 1124.78 46.4586C1125.09 47.1898 1125.25 47.9906 1125.25 48.8611C1125.25 50.6021 1124.69 52.0645 1123.58 53.2484C1122.46 54.3974 1121 54.9719 1119.19 54.9719Z" fill="#E30D29"/>
<path d="M16.7605 54.0001V28.0944H24.4382V37.4435H32.8993V28.0944H40.577V54.0001H32.8993V44.1288H24.4382V54.0001H16.7605ZM64.4253 54.6269C62.4058 54.6269 60.5082 54.3309 58.7324 53.739C56.9914 53.1122 55.4767 52.2243 54.1884 51.0753C52.9001 49.9262 51.8903 48.5161 51.1591 46.8447C50.4279 45.1386 50.0623 43.2061 50.0623 41.0473C50.0623 38.9233 50.4279 37.0256 51.1591 35.3543C51.9252 33.6481 52.9349 32.2205 54.1884 31.0715C55.4419 29.8876 56.8695 28.9997 58.4712 28.4078C60.1077 27.7811 61.7965 27.4677 63.5374 27.4677C65.5222 27.4677 67.2805 27.7811 68.8126 28.4078C70.3447 29.0346 71.6156 29.9051 72.6253 31.0193C73.6699 32.1335 74.4533 33.4566 74.9756 34.9887C75.4979 36.4859 75.7591 38.1224 75.7591 39.8982C75.7591 40.5946 75.7068 41.2736 75.6024 41.9352C75.5328 42.5619 75.4631 43.032 75.3935 43.3454H57.74C58.123 45.2256 58.9761 46.601 60.2992 47.4715C61.6224 48.342 63.3459 48.7772 65.4699 48.7772C66.6538 48.7772 67.768 48.6205 68.8126 48.3071C69.892 47.9938 71.0062 47.5411 72.1553 46.9492L74.7145 51.5976C73.2173 52.5377 71.5633 53.2863 69.7527 53.8434C67.9421 54.3657 66.1663 54.6269 64.4253 54.6269ZM63.7986 33.3174C62.2665 33.3174 60.9782 33.7178 59.9336 34.5186C58.9239 35.3195 58.2275 36.5382 57.8445 38.1747H68.9171C68.534 34.9365 66.8279 33.3174 63.7986 33.3174ZM119.33 63.6103V28.0944H125.597L126.172 30.7059H126.328C127.373 29.7658 128.574 28.9997 129.932 28.4078C131.29 27.7811 132.665 27.4677 134.058 27.4677C135.66 27.4677 137.105 27.7811 138.393 28.4078C139.682 29.0346 140.778 29.9225 141.684 31.0715C142.589 32.2205 143.268 33.6133 143.721 35.2498C144.208 36.8515 144.452 38.6447 144.452 40.6294C144.452 42.8579 144.139 44.8426 143.512 46.5836C142.885 48.2897 142.049 49.7521 141.005 50.9708C139.96 52.1547 138.759 53.06 137.401 53.6867C136.078 54.3135 134.685 54.6269 133.223 54.6269C130.855 54.6269 128.731 53.6867 126.851 51.8065H126.642L127.007 56.0371V63.6103H119.33ZM131.447 48.3594C132.909 48.3594 134.128 47.7674 135.103 46.5836C136.078 45.3649 136.565 43.415 136.565 40.7339C136.565 36.0681 134.981 33.7352 131.812 33.7352C130.176 33.7352 128.574 34.536 127.007 36.1377V46.6358C127.739 47.2626 128.487 47.7152 129.253 47.9938C130.054 48.2375 130.785 48.3594 131.447 48.3594ZM165.428 54.6269C163.721 54.6269 162.068 54.3309 160.466 53.739C158.899 53.1122 157.489 52.2243 156.235 51.0753C155.017 49.9262 154.042 48.5161 153.31 46.8447C152.579 45.1386 152.214 43.2061 152.214 41.0473C152.214 38.8885 152.579 36.9734 153.31 35.3021C154.042 33.5959 155.017 32.1683 156.235 31.0193C157.489 29.8702 158.899 28.9997 160.466 28.4078C162.068 27.7811 163.721 27.4677 165.428 27.4677C167.134 27.4677 168.77 27.7811 170.337 28.4078C171.939 28.9997 173.349 29.8702 174.568 31.0193C175.821 32.1683 176.814 33.5959 177.545 35.3021C178.276 36.9734 178.642 38.8885 178.642 41.0473C178.642 43.2061 178.276 45.1386 177.545 46.8447C176.814 48.5161 175.821 49.9262 174.568 51.0753C173.349 52.2243 171.939 53.1122 170.337 53.739C168.77 54.3309 167.134 54.6269 165.428 54.6269ZM165.428 48.4116C167.203 48.4116 168.527 47.75 169.397 46.4269C170.302 45.1037 170.755 43.3105 170.755 41.0473C170.755 38.784 170.302 36.9908 169.397 35.6677C168.527 34.3445 167.203 33.683 165.428 33.683C163.652 33.683 162.311 34.3445 161.406 35.6677C160.535 36.9908 160.1 38.784 160.1 41.0473C160.1 43.3105 160.535 45.1037 161.406 46.4269C162.311 47.75 163.652 48.4116 165.428 48.4116ZM201.863 54.6269C199.809 54.6269 197.911 54.3309 196.17 53.739C194.429 53.1122 192.897 52.2243 191.574 51.0753C190.286 49.9262 189.276 48.5161 188.545 46.8447C187.814 45.1386 187.448 43.2061 187.448 41.0473C187.448 38.8885 187.848 36.9734 188.649 35.3021C189.485 33.5959 190.582 32.1683 191.94 31.0193C193.332 29.8702 194.934 28.9997 196.745 28.4078C198.555 27.7811 200.453 27.4677 202.438 27.4677C204.492 27.4677 206.337 27.7985 207.974 28.46C209.645 29.1216 211.038 29.9573 212.152 30.967L208.601 35.7199C206.686 34.3619 204.771 33.683 202.856 33.683C200.627 33.683 198.816 34.3445 197.424 35.6677C196.031 36.9908 195.335 38.784 195.335 41.0473C195.335 43.3105 195.996 45.1037 197.319 46.4269C198.677 47.75 200.436 48.4116 202.594 48.4116C203.952 48.4116 205.188 48.1679 206.303 47.6804C207.452 47.1929 208.496 46.6184 209.436 45.9568L212.518 50.8141C210.951 52.1373 209.227 53.1122 207.347 53.739C205.467 54.3309 203.639 54.6269 201.863 54.6269ZM229.942 54.0001V34.1008H220.75V28.0944H246.864V34.1008H237.672V54.0001H229.942ZM269.564 54.6269C267.544 54.6269 265.646 54.3309 263.871 53.739C262.13 53.1122 260.615 52.2243 259.327 51.0753C258.038 49.9262 257.029 48.5161 256.297 46.8447C255.566 45.1386 255.201 43.2061 255.201 41.0473C255.201 38.9233 255.566 37.0256 256.297 35.3543C257.063 33.6481 258.073 32.2205 259.327 31.0715C260.58 29.8876 262.008 28.9997 263.609 28.4078C265.246 27.7811 266.935 27.4677 268.676 27.4677C270.66 27.4677 272.419 27.7811 273.951 28.4078C275.483 29.0346 276.754 29.9051 277.764 31.0193C278.808 32.1335 279.592 33.4566 280.114 34.9887C280.636 36.4859 280.897 38.1224 280.897 39.8982C280.897 40.5946 280.845 41.2736 280.741 41.9352C280.671 42.5619 280.601 43.032 280.532 43.3454H262.878C263.261 45.2256 264.114 46.601 265.438 47.4715C266.761 48.342 268.484 48.7772 270.608 48.7772C271.792 48.7772 272.906 48.6205 273.951 48.3071C275.03 47.9938 276.144 47.5411 277.294 46.9492L279.853 51.5976C278.356 52.5377 276.702 53.2863 274.891 53.8434C273.08 54.3657 271.305 54.6269 269.564 54.6269ZM268.937 33.3174C267.405 33.3174 266.116 33.7178 265.072 34.5186C264.062 35.3195 263.366 36.5382 262.983 38.1747H274.055C273.672 34.9365 271.966 33.3174 268.937 33.3174ZM288.346 54.0001V28.0944H295.24V47.9938H299.053V28.0944H305.32V47.9938H309.133V28.0944H316.027V54.0001H288.346ZM366.701 54.0001V34.1008H357.509V28.0944H383.623V34.1008H374.431V54.0001H366.701ZM392.9 54.0001V28.0944H400.316V35.3021C400.316 36.6252 400.246 38.0876 400.107 39.6893C399.968 41.291 399.829 42.8927 399.689 44.4944H399.846C400.264 43.6936 400.769 42.7883 401.361 41.7785C401.987 40.7339 402.492 39.8286 402.875 39.0626L409.613 28.0944H416.612V54.0001H409.195V46.7925C409.195 45.4694 409.265 44.0069 409.404 42.4052C409.543 40.8035 409.7 39.2018 409.874 37.6002H409.665C409.456 37.9832 409.212 38.4184 408.934 38.9059C408.69 39.3934 408.429 39.8808 408.151 40.3683C407.872 40.8558 407.611 41.3432 407.367 41.8307C407.123 42.2834 406.897 42.6838 406.688 43.032L399.898 54.0001H392.9Z" fill="#EBEBEC"/>
<g style="mix-blend-mode:lighten" opacity="0.8" filter="url(#filter0_f)">
<path d="M457.261 40.2433V33.9758H481.913V40.2433H457.261ZM525.64 54.3452V28.2306H534.623V37.214H541.309V28.2306H550.292V54.3452H541.309V45.0484H534.623V54.3452H525.64ZM573.723 54.9719C571.668 54.9719 569.736 54.676 567.925 54.084C566.15 53.4573 564.6 52.5694 563.277 51.4203C561.989 50.2365 560.961 48.7915 560.195 47.0853C559.464 45.3792 559.099 43.4467 559.099 41.2879C559.099 39.1639 559.482 37.2488 560.248 35.5427C561.014 33.8365 562.023 32.4089 563.277 31.2599C564.565 30.076 566.028 29.1707 567.664 28.544C569.335 27.9172 571.042 27.6038 572.783 27.6038C574.837 27.6038 576.63 27.9346 578.162 28.5962C579.729 29.2578 581.035 30.1631 582.079 31.3121C583.124 32.4612 583.907 33.8017 584.43 35.3338C584.952 36.8658 585.213 38.5023 585.213 40.2433C585.213 41.0442 585.161 41.7928 585.056 42.4892C584.987 43.1855 584.917 43.6904 584.848 44.0038H568.082C568.465 45.4662 569.231 46.5282 570.38 47.1898C571.529 47.8514 573.061 48.1821 574.976 48.1821C576.021 48.1821 577.031 48.0603 578.006 47.8165C579.015 47.538 580.095 47.1376 581.244 46.6153L584.169 51.9426C582.602 52.9524 580.878 53.7184 578.998 54.2407C577.118 54.7282 575.359 54.9719 573.723 54.9719ZM573.096 34.3936C570.519 34.3936 568.865 35.6471 568.134 38.1541H577.274C576.891 35.6471 575.499 34.3936 573.096 34.3936ZM628.209 63.5375V28.2306H635.521L636.148 30.6331H636.357C637.367 29.7278 638.498 28.9966 639.752 28.4395C641.04 27.8824 642.346 27.6038 643.669 27.6038C645.236 27.6038 646.664 27.9172 647.952 28.544C649.24 29.1707 650.32 30.0586 651.19 31.2077C652.095 32.3567 652.792 33.7495 653.279 35.386C653.767 37.0225 654.01 38.8505 654.01 40.8701C654.01 43.1333 653.697 45.1354 653.07 46.8764C652.444 48.6174 651.608 50.0972 650.563 51.3159C649.554 52.4998 648.37 53.4051 647.012 54.0318C645.689 54.6586 644.313 54.9719 642.886 54.9719C640.692 54.9719 638.725 54.1014 636.984 52.3605H636.775L637.193 56.3299V63.5375H628.209ZM640.744 47.6598C641.301 47.6598 641.824 47.5554 642.311 47.3465C642.799 47.1027 643.216 46.7197 643.565 46.1974C643.948 45.6751 644.244 44.9962 644.452 44.1605C644.696 43.29 644.818 42.228 644.818 40.9745C644.818 38.8157 644.487 37.2662 643.826 36.3261C643.199 35.386 642.241 34.9159 640.953 34.9159C640.257 34.9159 639.613 35.0552 639.021 35.3338C638.429 35.6123 637.819 36.0998 637.193 36.7962V46.4063C637.75 46.8938 638.324 47.2246 638.916 47.3987C639.543 47.5728 640.152 47.6598 640.744 47.6598ZM674.725 54.9719C672.984 54.9719 671.295 54.676 669.659 54.084C668.057 53.4573 666.629 52.5694 665.376 51.4203C664.122 50.2365 663.113 48.7915 662.347 47.0853C661.615 45.3792 661.25 43.4467 661.25 41.2879C661.25 39.1291 661.615 37.1966 662.347 35.4904C663.113 33.7843 664.122 32.3567 665.376 31.2077C666.629 30.0238 668.057 29.1359 669.659 28.544C671.295 27.9172 672.984 27.6038 674.725 27.6038C676.431 27.6038 678.085 27.9172 679.687 28.544C681.323 29.1359 682.768 30.0238 684.022 31.2077C685.275 32.3567 686.285 33.7843 687.051 35.4904C687.817 37.1966 688.2 39.1291 688.2 41.2879C688.2 43.4467 687.817 45.3792 687.051 47.0853C686.285 48.7915 685.275 50.2365 684.022 51.4203C682.768 52.5694 681.323 53.4573 679.687 54.084C678.085 54.676 676.431 54.9719 674.725 54.9719ZM674.725 47.7643C676.257 47.7643 677.354 47.1898 678.015 46.0407C678.677 44.8569 679.008 43.2726 679.008 41.2879C679.008 39.3032 678.677 37.7363 678.015 36.5873C677.354 35.4034 676.257 34.8115 674.725 34.8115C673.193 34.8115 672.096 35.4034 671.435 36.5873C670.773 37.7363 670.442 39.3032 670.442 41.2879C670.442 43.2726 670.773 44.8569 671.435 46.0407C672.096 47.1898 673.193 47.7643 674.725 47.7643ZM711.108 54.9719C709.054 54.9719 707.122 54.676 705.311 54.084C703.535 53.4573 701.986 52.5694 700.663 51.4203C699.374 50.2365 698.347 48.7915 697.581 47.0853C696.85 45.3792 696.484 43.4467 696.484 41.2879C696.484 39.1291 696.902 37.1966 697.738 35.4904C698.573 33.7843 699.688 32.3567 701.08 31.2077C702.508 30.0238 704.144 29.1359 705.99 28.544C707.835 27.9172 709.768 27.6038 711.787 27.6038C713.842 27.6038 715.722 27.9172 717.428 28.544C719.134 29.1707 720.544 30.0064 721.659 31.051L717.585 36.5873C716.61 35.9257 715.687 35.473 714.817 35.2293C713.981 34.9507 713.145 34.8115 712.31 34.8115C710.325 34.8115 708.723 35.4034 707.505 36.5873C706.286 37.7363 705.677 39.3032 705.677 41.2879C705.677 43.2726 706.268 44.8569 707.452 46.0407C708.636 47.1898 710.151 47.7643 711.996 47.7643C713.285 47.7643 714.451 47.538 715.496 47.0853C716.54 46.6327 717.515 46.1278 718.42 45.5707L721.972 51.2114C720.335 52.5346 718.542 53.4921 716.592 54.084C714.677 54.676 712.849 54.9719 711.108 54.9719ZM738.613 54.3452V35.2293H729.734V28.2306H756.475V35.2293H747.596V54.3452H738.613ZM778.861 54.9719C776.807 54.9719 774.874 54.676 773.064 54.084C771.288 53.4573 769.738 52.5694 768.415 51.4203C767.127 50.2365 766.1 48.7915 765.334 47.0853C764.602 45.3792 764.237 43.4467 764.237 41.2879C764.237 39.1639 764.62 37.2488 765.386 35.5427C766.152 33.8365 767.162 32.4089 768.415 31.2599C769.704 30.076 771.166 29.1707 772.802 28.544C774.474 27.9172 776.18 27.6038 777.921 27.6038C779.975 27.6038 781.768 27.9346 783.301 28.5962C784.867 29.2578 786.173 30.1631 787.218 31.3121C788.262 32.4612 789.046 33.8017 789.568 35.3338C790.09 36.8658 790.351 38.5023 790.351 40.2433C790.351 41.0442 790.299 41.7928 790.195 42.4892C790.125 43.1855 790.055 43.6904 789.986 44.0038H773.22C773.603 45.4662 774.369 46.5282 775.518 47.1898C776.667 47.8514 778.199 48.1821 780.115 48.1821C781.159 48.1821 782.169 48.0603 783.144 47.8165C784.154 47.538 785.233 47.1376 786.382 46.6153L789.307 51.9426C787.74 52.9524 786.016 53.7184 784.136 54.2407C782.256 54.7282 780.498 54.9719 778.861 54.9719ZM778.234 34.3936C775.658 34.3936 774.004 35.6471 773.273 38.1541H782.413C782.03 35.6471 780.637 34.3936 778.234 34.3936ZM833.974 54.3452V28.2306H846.405C847.937 28.2306 849.382 28.3525 850.74 28.5962C852.133 28.8051 853.351 29.1881 854.396 29.7452C855.44 30.2675 856.259 30.9813 856.851 31.8866C857.477 32.7571 857.791 33.8713 857.791 35.2293C857.791 36.2391 857.46 37.2662 856.798 38.3108C856.137 39.3554 855.005 40.104 853.403 40.5567V40.7656C855.075 41.1834 856.381 41.8624 857.321 42.8025C858.261 43.7427 858.731 45.0832 858.731 46.8242C858.731 48.1821 858.417 49.3486 857.791 50.3235C857.164 51.2637 856.311 52.0297 855.232 52.6216C854.187 53.2136 852.951 53.6488 851.523 53.9274C850.13 54.2059 848.668 54.3452 847.136 54.3452H833.974ZM842.749 38.1541H846.039C847.153 38.1541 847.954 37.98 848.442 37.6318C848.964 37.2837 849.225 36.7962 849.225 36.1694C849.225 35.5427 848.981 35.0378 848.494 34.6548C848.006 34.2718 847.171 34.0803 845.987 34.0803H842.749V38.1541ZM842.749 48.4955H846.718C848.006 48.4955 848.877 48.2692 849.33 47.8165C849.817 47.3639 850.061 46.8242 850.061 46.1974C850.061 45.6055 849.8 45.1006 849.277 44.6828C848.79 44.2301 847.937 44.0038 846.718 44.0038H842.749V48.4955ZM909.561 54.3452V35.2293H900.682V28.2306H927.424V35.2293H918.545V54.3452H909.561ZM949.81 54.9719C947.755 54.9719 945.823 54.676 944.012 54.084C942.236 53.4573 940.687 52.5694 939.364 51.4203C938.075 50.2365 937.048 48.7915 936.282 47.0853C935.551 45.3792 935.185 43.4467 935.185 41.2879C935.185 39.1639 935.568 37.2488 936.334 35.5427C937.1 33.8365 938.11 32.4089 939.364 31.2599C940.652 30.076 942.114 29.1707 943.751 28.544C945.422 27.9172 947.128 27.6038 948.869 27.6038C950.924 27.6038 952.717 27.9346 954.249 28.5962C955.816 29.2578 957.122 30.1631 958.166 31.3121C959.211 32.4612 959.994 33.8017 960.517 35.3338C961.039 36.8658 961.3 38.5023 961.3 40.2433C961.3 41.0442 961.248 41.7928 961.143 42.4892C961.074 43.1855 961.004 43.6904 960.934 44.0038H944.169C944.552 45.4662 945.318 46.5282 946.467 47.1898C947.616 47.8514 949.148 48.1821 951.063 48.1821C952.108 48.1821 953.117 48.0603 954.092 47.8165C955.102 47.538 956.182 47.1376 957.331 46.6153L960.255 51.9426C958.689 52.9524 956.965 53.7184 955.085 54.2407C953.204 54.7282 951.446 54.9719 949.81 54.9719ZM949.183 34.3936C946.606 34.3936 944.952 35.6471 944.221 38.1541H953.361C952.978 35.6471 951.585 34.3936 949.183 34.3936ZM982.746 54.9719C978.498 54.9719 975.242 53.4747 972.979 50.4802C970.716 47.4509 969.584 43.2378 969.584 37.8408C969.584 34.1151 969.984 31.0336 970.785 28.5962C971.621 26.1588 972.77 24.1915 974.232 22.6943C975.695 21.1971 977.436 20.0828 979.455 19.3516C981.475 18.6204 983.686 18.0981 986.088 17.7848C987.725 17.5758 989.013 17.3669 989.953 17.158C990.928 16.9143 991.834 16.6009 992.669 16.2179L994.341 23.9478C993.644 24.5397 992.704 24.9924 991.52 25.3058C990.371 25.6191 989.187 25.8629 987.969 26.037C986.263 26.2459 984.835 26.4548 983.686 26.6637C982.537 26.8378 981.597 27.1338 980.866 27.5516C980.134 27.9694 979.577 28.5614 979.194 29.3274C978.811 30.0934 978.55 31.138 978.411 32.4612C979.246 31.5558 980.274 30.8769 981.492 30.4242C982.711 29.9367 983.999 29.693 985.357 29.693C986.646 29.693 987.882 29.9367 989.066 30.4242C990.284 30.9117 991.346 31.6603 992.252 32.6701C993.192 33.645 993.923 34.8985 994.445 36.4306C995.002 37.9278 995.281 39.6862 995.281 41.7057C995.281 43.6904 994.967 45.501 994.341 47.1376C993.714 48.7741 992.843 50.1668 991.729 51.3159C990.65 52.4649 989.327 53.3702 987.76 54.0318C986.228 54.6586 984.556 54.9719 982.746 54.9719ZM982.641 47.7643C983.86 47.7643 984.731 47.2246 985.253 46.1452C985.81 45.0658 986.088 43.586 986.088 41.7057C986.088 39.5121 985.758 38.0497 985.096 37.3185C984.469 36.5873 983.634 36.2217 982.589 36.2217C981.823 36.2217 981.04 36.4306 980.239 36.8484C979.438 37.2314 978.742 37.9104 978.15 38.8853V40.0344C978.15 42.7503 978.55 44.7176 979.351 45.9363C980.187 47.155 981.283 47.7643 982.641 47.7643ZM1018.19 54.9719C1016.13 54.9719 1014.2 54.676 1012.39 54.084C1010.62 53.4573 1009.07 52.5694 1007.74 51.4203C1006.45 50.2365 1005.43 48.7915 1004.66 47.0853C1003.93 45.3792 1003.56 43.4467 1003.56 41.2879C1003.56 39.1639 1003.95 37.2488 1004.71 35.5427C1005.48 33.8365 1006.49 32.4089 1007.74 31.2599C1009.03 30.076 1010.49 29.1707 1012.13 28.544C1013.8 27.9172 1015.51 27.6038 1017.25 27.6038C1019.3 27.6038 1021.1 27.9346 1022.63 28.5962C1024.2 29.2578 1025.5 30.1631 1026.55 31.3121C1027.59 32.4612 1028.37 33.8017 1028.9 35.3338C1029.42 36.8658 1029.68 38.5023 1029.68 40.2433C1029.68 41.0442 1029.63 41.7928 1029.52 42.4892C1029.45 43.1855 1029.38 43.6904 1029.31 44.0038H1012.55C1012.93 45.4662 1013.7 46.5282 1014.85 47.1898C1016 47.8514 1017.53 48.1821 1019.44 48.1821C1020.49 48.1821 1021.5 48.0603 1022.47 47.8165C1023.48 47.538 1024.56 47.1376 1025.71 46.6153L1028.63 51.9426C1027.07 52.9524 1025.34 53.7184 1023.46 54.2407C1021.58 54.7282 1019.83 54.9719 1018.19 54.9719ZM1017.56 34.3936C1014.99 34.3936 1013.33 35.6471 1012.6 38.1541H1021.74C1021.36 35.6471 1019.96 34.3936 1017.56 34.3936ZM1050.81 54.9719C1049.8 54.9719 1048.88 54.7978 1048.04 54.4496C1047.21 54.1014 1046.49 53.614 1045.9 52.9872C1045.31 52.3605 1044.84 51.6467 1044.49 50.8458C1044.18 50.0102 1044.02 49.1223 1044.02 48.1821C1044.02 47.242 1044.18 46.3715 1044.49 45.5707C1044.84 44.735 1045.31 44.0212 1045.9 43.4293C1046.49 42.8025 1047.21 42.3151 1048.04 41.9669C1048.88 41.5839 1049.8 41.3923 1050.81 41.3923C1051.82 41.3923 1052.74 41.5839 1053.58 41.9669C1054.42 42.3151 1055.13 42.8025 1055.72 43.4293C1056.31 44.0212 1056.77 44.735 1057.08 45.5707C1057.43 46.3715 1057.6 47.242 1057.6 48.1821C1057.6 49.1223 1057.43 50.0102 1057.08 50.8458C1056.77 51.6467 1056.31 52.3605 1055.72 52.9872C1055.13 53.614 1054.42 54.1014 1053.58 54.4496C1052.74 54.7978 1051.82 54.9719 1050.81 54.9719ZM1085 54.9719C1083.99 54.9719 1083.07 54.7978 1082.23 54.4496C1081.4 54.1014 1080.68 53.614 1080.09 52.9872C1079.5 52.3605 1079.03 51.6467 1078.68 50.8458C1078.37 50.0102 1078.21 49.1223 1078.21 48.1821C1078.21 47.242 1078.37 46.3715 1078.68 45.5707C1079.03 44.735 1079.5 44.0212 1080.09 43.4293C1080.68 42.8025 1081.4 42.3151 1082.23 41.9669C1083.07 41.5839 1083.99 41.3923 1085 41.3923C1086.01 41.3923 1086.93 41.5839 1087.77 41.9669C1088.61 42.3151 1089.32 42.8025 1089.91 43.4293C1090.5 44.0212 1090.96 44.735 1091.27 45.5707C1091.62 46.3715 1091.79 47.242 1091.79 48.1821C1091.79 49.1223 1091.62 50.0102 1091.27 50.8458C1090.96 51.6467 1090.5 52.3605 1089.91 52.9872C1089.32 53.614 1088.61 54.1014 1087.77 54.4496C1086.93 54.7978 1086.01 54.9719 1085 54.9719ZM1119.19 54.9719C1118.18 54.9719 1117.26 54.7978 1116.42 54.4496C1115.59 54.1014 1114.87 53.614 1114.28 52.9872C1113.69 52.3605 1113.22 51.6467 1112.87 50.8458C1112.56 50.0102 1112.4 49.1223 1112.4 48.1821C1112.4 47.242 1112.56 46.3715 1112.87 45.5707C1113.22 44.735 1113.69 44.0212 1114.28 43.4293C1114.87 42.8025 1115.59 42.3151 1116.42 41.9669C1117.26 41.5839 1118.18 41.3923 1119.19 41.3923C1120.2 41.3923 1121.12 41.5839 1121.96 41.9669C1122.8 42.3151 1123.51 42.8025 1124.1 43.4293C1124.69 44.0212 1125.15 44.735 1125.46 45.5707C1125.81 46.3715 1125.98 47.242 1125.98 48.1821C1125.98 49.1223 1125.81 50.0102 1125.46 50.8458C1125.15 51.6467 1124.69 52.3605 1124.1 52.9872C1123.51 53.614 1122.8 54.1014 1121.96 54.4496C1121.12 54.7978 1120.2 54.9719 1119.19 54.9719Z" fill="#E12942"/>
</g>
<g style="mix-blend-mode:lighten" opacity="0.5" filter="url(#filter1_f)">
<path d="M16.3427 54.0001V27.8855H25.3261V36.8689H32.0114V27.8855H40.9948V54.0001H32.0114V44.7033H25.3261V54.0001H16.3427ZM64.4253 54.6269C62.371 54.6269 60.4385 54.3309 58.6279 53.739C56.8521 53.1122 55.3026 52.2243 53.9795 51.0753C52.6912 49.8914 51.664 48.4464 50.898 46.7403C50.1668 45.0341 49.8012 43.1016 49.8012 40.9428C49.8012 38.8188 50.1842 36.9038 50.9502 35.1976C51.7162 33.4915 52.726 32.0639 53.9795 30.9148C55.2678 29.731 56.7302 28.8257 58.3668 28.1989C60.0381 27.5722 61.7442 27.2588 63.4852 27.2588C65.5396 27.2588 67.3328 27.5896 68.8648 28.2511C70.4317 28.9127 71.7374 29.818 72.782 30.967C73.8266 32.1161 74.61 33.4566 75.1323 34.9887C75.6546 36.5208 75.9158 38.1573 75.9158 39.8982C75.9158 40.6991 75.8635 41.4477 75.7591 42.1441C75.6894 42.8405 75.6198 43.3454 75.5502 43.6587H58.7846C59.1676 45.1212 59.9336 46.1832 61.0827 46.8447C62.2317 47.5063 63.7638 47.8371 65.6788 47.8371C66.7234 47.8371 67.7332 47.7152 68.7081 47.4715C69.7179 47.1929 70.7973 46.7925 71.9463 46.2702L74.8712 51.5976C73.3043 52.6073 71.5807 53.3734 69.7005 53.8957C67.8202 54.3831 66.0619 54.6269 64.4253 54.6269ZM63.7986 34.0486C61.222 34.0486 59.568 35.3021 58.8368 37.8091H67.9769C67.5939 35.3021 66.2011 34.0486 63.7986 34.0486ZM118.912 63.1925V27.8855H126.224L126.851 30.2881H127.06C128.069 29.3828 129.201 28.6516 130.454 28.0944C131.743 27.5373 133.049 27.2588 134.372 27.2588C135.939 27.2588 137.366 27.5722 138.654 28.1989C139.943 28.8257 141.022 29.7135 141.893 30.8626C142.798 32.0116 143.494 33.4044 143.982 35.0409C144.469 36.6774 144.713 38.5055 144.713 40.525C144.713 42.7883 144.4 44.7904 143.773 46.5313C143.146 48.2723 142.31 49.7521 141.266 50.9708C140.256 52.1547 139.072 53.06 137.714 53.6867C136.391 54.3135 135.016 54.6269 133.588 54.6269C131.395 54.6269 129.427 53.7564 127.686 52.0154H127.477L127.895 55.9848V63.1925H118.912ZM131.447 47.3148C132.004 47.3148 132.526 47.2103 133.014 47.0014C133.501 46.7577 133.919 46.3747 134.267 45.8524C134.65 45.3301 134.946 44.6511 135.155 43.8154C135.399 42.9449 135.521 41.8829 135.521 40.6294C135.521 38.4706 135.19 36.9212 134.528 35.981C133.902 35.0409 132.944 34.5709 131.656 34.5709C130.959 34.5709 130.315 34.7101 129.723 34.9887C129.131 35.2673 128.522 35.7547 127.895 36.4511V46.0613C128.452 46.5488 129.027 46.8795 129.619 47.0536C130.246 47.2277 130.855 47.3148 131.447 47.3148ZM165.428 54.6269C163.687 54.6269 161.998 54.3309 160.361 53.739C158.76 53.1122 157.332 52.2243 156.079 51.0753C154.825 49.8914 153.815 48.4464 153.049 46.7403C152.318 45.0341 151.952 43.1016 151.952 40.9428C151.952 38.784 152.318 36.8515 153.049 35.1454C153.815 33.4392 154.825 32.0116 156.079 30.8626C157.332 29.6787 158.76 28.7908 160.361 28.1989C161.998 27.5722 163.687 27.2588 165.428 27.2588C167.134 27.2588 168.788 27.5722 170.389 28.1989C172.026 28.7908 173.471 29.6787 174.724 30.8626C175.978 32.0116 176.988 33.4392 177.754 35.1454C178.52 36.8515 178.903 38.784 178.903 40.9428C178.903 43.1016 178.52 45.0341 177.754 46.7403C176.988 48.4464 175.978 49.8914 174.724 51.0753C173.471 52.2243 172.026 53.1122 170.389 53.739C168.788 54.3309 167.134 54.6269 165.428 54.6269ZM165.428 47.4192C166.96 47.4192 168.056 46.8447 168.718 45.6957C169.38 44.5118 169.71 42.9275 169.71 40.9428C169.71 38.9581 169.38 37.3912 168.718 36.2422C168.056 35.0583 166.96 34.4664 165.428 34.4664C163.896 34.4664 162.799 35.0583 162.137 36.2422C161.476 37.3912 161.145 38.9581 161.145 40.9428C161.145 42.9275 161.476 44.5118 162.137 45.6957C162.799 46.8447 163.896 47.4192 165.428 47.4192ZM201.811 54.6269C199.757 54.6269 197.824 54.3309 196.014 53.739C194.238 53.1122 192.688 52.2243 191.365 51.0753C190.077 49.8914 189.05 48.4464 188.284 46.7403C187.552 45.0341 187.187 43.1016 187.187 40.9428C187.187 38.784 187.605 36.8515 188.44 35.1454C189.276 33.4392 190.39 32.0116 191.783 30.8626C193.211 29.6787 194.847 28.7908 196.692 28.1989C198.538 27.5722 200.47 27.2588 202.49 27.2588C204.544 27.2588 206.425 27.5722 208.131 28.1989C209.837 28.8257 211.247 29.6613 212.361 30.7059L208.287 36.2422C207.312 35.5806 206.39 35.128 205.519 34.8842C204.684 34.6057 203.848 34.4664 203.012 34.4664C201.028 34.4664 199.426 35.0583 198.207 36.2422C196.988 37.3912 196.379 38.9581 196.379 40.9428C196.379 42.9275 196.971 44.5118 198.155 45.6957C199.339 46.8447 200.853 47.4192 202.699 47.4192C203.987 47.4192 205.154 47.1929 206.198 46.7403C207.243 46.2876 208.218 45.7827 209.123 45.2256L212.675 50.8664C211.038 52.1895 209.245 53.147 207.295 53.739C205.38 54.3309 203.552 54.6269 201.811 54.6269ZM229.315 54.0001V34.8842H220.436V27.8855H247.178V34.8842H238.299V54.0001H229.315ZM269.564 54.6269C267.509 54.6269 265.577 54.3309 263.766 53.739C261.99 53.1122 260.441 52.2243 259.118 51.0753C257.829 49.8914 256.802 48.4464 256.036 46.7403C255.305 45.0341 254.939 43.1016 254.939 40.9428C254.939 38.8188 255.322 36.9038 256.088 35.1976C256.855 33.4915 257.864 32.0639 259.118 30.9148C260.406 29.731 261.869 28.8257 263.505 28.1989C265.176 27.5722 266.883 27.2588 268.623 27.2588C270.678 27.2588 272.471 27.5896 274.003 28.2511C275.57 28.9127 276.876 29.818 277.92 30.967C278.965 32.1161 279.748 33.4566 280.271 34.9887C280.793 36.5208 281.054 38.1573 281.054 39.8982C281.054 40.6991 281.002 41.4477 280.897 42.1441C280.828 42.8405 280.758 43.3454 280.688 43.6587H263.923C264.306 45.1212 265.072 46.1832 266.221 46.8447C267.37 47.5063 268.902 47.8371 270.817 47.8371C271.862 47.8371 272.871 47.7152 273.846 47.4715C274.856 47.1929 275.936 46.7925 277.085 46.2702L280.009 51.5976C278.443 52.6073 276.719 53.3734 274.839 53.8957C272.959 54.3831 271.2 54.6269 269.564 54.6269ZM268.937 34.0486C266.36 34.0486 264.706 35.3021 263.975 37.8091H273.115C272.732 35.3021 271.339 34.0486 268.937 34.0486ZM287.876 54.0001V27.8855H295.814V47.0014H298.635V27.8855H305.738V47.0014H308.558V27.8855H316.497V54.0001H287.876ZM366.074 54.0001V34.8842H357.195V27.8855H383.937V34.8842H375.058V54.0001H366.074ZM392.377 54.0001V27.8855H401.047V33.7874C401.047 35.0757 400.96 36.5382 400.786 38.1747C400.647 39.7764 400.49 41.3607 400.316 42.9275H400.473C400.856 42.1267 401.326 41.2214 401.883 40.2116C402.475 39.167 402.962 38.2617 403.345 37.4957L408.986 27.8855H417.134V54.0001H408.464V48.0982C408.464 46.8099 408.551 45.3649 408.725 43.7632C408.899 42.1615 409.073 40.5598 409.247 38.9581H409.038C408.655 39.759 408.185 40.6817 407.628 41.7263C407.071 42.7708 406.601 43.6587 406.218 44.3899L400.525 54.0001H392.377Z" fill="white"/>
</g>
<path d="M1599.57 39.8255V34.3936H1623.6V39.8255H1599.57ZM1668.06 54.3452V28.4395H1675.74V37.7885H1684.2V28.4395H1691.87V54.3452H1684.2V44.4739H1675.74V54.3452H1668.06ZM1715.72 54.9719C1713.7 54.9719 1711.81 54.676 1710.03 54.084C1708.29 53.4573 1706.77 52.5694 1705.49 51.4204C1704.2 50.2713 1703.19 48.8611 1702.46 47.1898C1701.72 45.4836 1701.36 43.5512 1701.36 41.3924C1701.36 39.2684 1701.72 37.3707 1702.46 35.6994C1703.22 33.9932 1704.23 32.5656 1705.49 31.4166C1706.74 30.2327 1708.17 29.3448 1709.77 28.7529C1711.4 28.1261 1713.09 27.8128 1714.83 27.8128C1716.82 27.8128 1718.58 28.1261 1720.11 28.7529C1721.64 29.3796 1722.91 30.2501 1723.92 31.3643C1724.97 32.4786 1725.75 33.8017 1726.27 35.3338C1726.79 36.831 1727.06 38.4675 1727.06 40.2433C1727.06 40.9397 1727 41.6187 1726.9 42.2802C1726.83 42.907 1726.76 43.3771 1726.69 43.6904H1709.04C1709.42 45.5707 1710.27 46.9461 1711.6 47.8165C1712.92 48.687 1714.64 49.1223 1716.77 49.1223C1717.95 49.1223 1719.06 48.9656 1720.11 48.6522C1721.19 48.3388 1722.3 47.8862 1723.45 47.2942L1726.01 51.9426C1724.51 52.8828 1722.86 53.6314 1721.05 54.1885C1719.24 54.7108 1717.46 54.9719 1715.72 54.9719ZM1715.1 33.6624C1713.56 33.6624 1712.28 34.0629 1711.23 34.8637C1710.22 35.6645 1709.52 36.8832 1709.14 38.5197H1720.21C1719.83 35.2815 1718.12 33.6624 1715.1 33.6624ZM1770.63 63.9554V28.4395H1776.89L1777.47 31.051H1777.63C1778.67 30.1108 1779.87 29.3448 1781.23 28.7529C1782.59 28.1261 1783.96 27.8128 1785.36 27.8128C1786.96 27.8128 1788.4 28.1261 1789.69 28.7529C1790.98 29.3796 1792.08 30.2675 1792.98 31.4166C1793.89 32.5656 1794.56 33.9584 1795.02 35.5949C1795.51 37.1966 1795.75 38.9898 1795.75 40.9745C1795.75 43.203 1795.44 45.1877 1794.81 46.9286C1794.18 48.6348 1793.35 50.0972 1792.3 51.3159C1791.26 52.4998 1790.06 53.4051 1788.7 54.0318C1787.37 54.6586 1785.98 54.9719 1784.52 54.9719C1782.15 54.9719 1780.03 54.0318 1778.15 52.1516H1777.94L1778.3 56.3821V63.9554H1770.63ZM1782.74 48.7044C1784.21 48.7044 1785.42 48.1125 1786.4 46.9286C1787.37 45.71 1787.86 43.7601 1787.86 41.079C1787.86 36.4132 1786.28 34.0803 1783.11 34.0803C1781.47 34.0803 1779.87 34.8811 1778.3 36.4828V46.9809C1779.04 47.6076 1779.78 48.0603 1780.55 48.3388C1781.35 48.5826 1782.08 48.7044 1782.74 48.7044ZM1816.72 54.9719C1815.02 54.9719 1813.36 54.676 1811.76 54.084C1810.2 53.4573 1808.79 52.5694 1807.53 51.4204C1806.31 50.2713 1805.34 48.8611 1804.61 47.1898C1803.88 45.4836 1803.51 43.5512 1803.51 41.3924C1803.51 39.2335 1803.88 37.3185 1804.61 35.6471C1805.34 33.941 1806.31 32.5134 1807.53 31.3643C1808.79 30.2153 1810.2 29.3448 1811.76 28.7529C1813.36 28.1261 1815.02 27.8128 1816.72 27.8128C1818.43 27.8128 1820.07 28.1261 1821.63 28.7529C1823.24 29.3448 1824.65 30.2153 1825.86 31.3643C1827.12 32.5134 1828.11 33.941 1828.84 35.6471C1829.57 37.3185 1829.94 39.2335 1829.94 41.3924C1829.94 43.5512 1829.57 45.4836 1828.84 47.1898C1828.11 48.8611 1827.12 50.2713 1825.86 51.4204C1824.65 52.5694 1823.24 53.4573 1821.63 54.084C1820.07 54.676 1818.43 54.9719 1816.72 54.9719ZM1816.72 48.7567C1818.5 48.7567 1819.82 48.0951 1820.69 46.772C1821.6 45.4488 1822.05 43.6556 1822.05 41.3924C1822.05 39.1291 1821.6 37.3359 1820.69 36.0127C1819.82 34.6896 1818.5 34.028 1816.72 34.028C1814.95 34.028 1813.61 34.6896 1812.7 36.0127C1811.83 37.3359 1811.4 39.1291 1811.4 41.3924C1811.4 43.6556 1811.83 45.4488 1812.7 46.772C1813.61 48.0951 1814.95 48.7567 1816.72 48.7567ZM1853.16 54.9719C1851.11 54.9719 1849.21 54.676 1847.47 54.084C1845.73 53.4573 1844.19 52.5694 1842.87 51.4204C1841.58 50.2713 1840.57 48.8611 1839.84 47.1898C1839.11 45.4836 1838.74 43.5512 1838.74 41.3924C1838.74 39.2335 1839.15 37.3185 1839.95 35.6471C1840.78 33.941 1841.88 32.5134 1843.24 31.3643C1844.63 30.2153 1846.23 29.3448 1848.04 28.7529C1849.85 28.1261 1851.75 27.8128 1853.73 27.8128C1855.79 27.8128 1857.63 28.1435 1859.27 28.8051C1860.94 29.4667 1862.34 30.3024 1863.45 31.3121L1859.9 36.065C1857.98 34.707 1856.07 34.028 1854.15 34.028C1851.92 34.028 1850.11 34.6896 1848.72 36.0127C1847.33 37.3359 1846.63 39.1291 1846.63 41.3924C1846.63 43.6556 1847.29 45.4488 1848.62 46.772C1849.97 48.0951 1851.73 48.7567 1853.89 48.7567C1855.25 48.7567 1856.49 48.5129 1857.6 48.0255C1858.75 47.538 1859.79 46.9635 1860.73 46.3019L1863.81 51.1592C1862.25 52.4823 1860.52 53.4573 1858.64 54.084C1856.76 54.676 1854.94 54.9719 1853.16 54.9719ZM1881.24 54.3452V34.4459H1872.05V28.4395H1898.16V34.4459H1888.97V54.3452H1881.24ZM1920.86 54.9719C1918.84 54.9719 1916.94 54.676 1915.17 54.084C1913.43 53.4573 1911.91 52.5694 1910.62 51.4204C1909.34 50.2713 1908.33 48.8611 1907.59 47.1898C1906.86 45.4836 1906.5 43.5512 1906.5 41.3924C1906.5 39.2684 1906.86 37.3707 1907.59 35.6994C1908.36 33.9932 1909.37 32.5656 1910.62 31.4166C1911.88 30.2327 1913.3 29.3448 1914.91 28.7529C1916.54 28.1261 1918.23 27.8128 1919.97 27.8128C1921.96 27.8128 1923.72 28.1261 1925.25 28.7529C1926.78 29.3796 1928.05 30.2501 1929.06 31.3643C1930.11 32.4786 1930.89 33.8017 1931.41 35.3338C1931.93 36.831 1932.19 38.4675 1932.19 40.2433C1932.19 40.9397 1932.14 41.6187 1932.04 42.2802C1931.97 42.907 1931.9 43.3771 1931.83 43.6904H1914.18C1914.56 45.5707 1915.41 46.9461 1916.73 47.8165C1918.06 48.687 1919.78 49.1223 1921.91 49.1223C1923.09 49.1223 1924.2 48.9656 1925.25 48.6522C1926.33 48.3388 1927.44 47.8862 1928.59 47.2942L1931.15 51.9426C1929.65 52.8828 1928 53.6314 1926.19 54.1885C1924.38 54.7108 1922.6 54.9719 1920.86 54.9719ZM1920.23 33.6624C1918.7 33.6624 1917.41 34.0629 1916.37 34.8637C1915.36 35.6645 1914.66 36.8832 1914.28 38.5197H1925.35C1924.97 35.2815 1923.26 33.6624 1920.23 33.6624ZM1976.39 54.3452V28.4395H1988.61C1990.15 28.4395 1991.57 28.5614 1992.9 28.8051C1994.22 29.014 1995.37 29.397 1996.34 29.9542C1997.35 30.4765 1998.14 31.1728 1998.69 32.0433C1999.29 32.9138 1999.58 33.9932 1999.58 35.2815C1999.58 36.3958 1999.23 37.4578 1998.54 38.4675C1997.88 39.4773 1996.76 40.1911 1995.19 40.6089V40.8178C1996.83 41.2357 1998.14 41.9146 1999.11 42.8548C2000.09 43.7601 2000.57 45.1006 2000.57 46.8764C2000.57 48.1996 2000.28 49.3486 1999.69 50.3235C1999.09 51.2637 1998.28 52.0297 1997.23 52.6216C1996.22 53.2136 1995.02 53.6488 1993.63 53.9274C1992.27 54.2059 1990.82 54.3452 1989.29 54.3452H1976.39ZM1983.91 38.5197H1988.14C1989.61 38.5197 1990.65 38.3108 1991.28 37.893C1991.9 37.4752 1992.22 36.8658 1992.22 36.065C1992.22 35.2641 1991.9 34.6548 1991.28 34.237C1990.68 33.8191 1989.66 33.6102 1988.2 33.6102H1983.91V38.5197ZM1983.91 49.1745H1988.82C1990.39 49.1745 1991.49 48.9308 1992.11 48.4433C1992.77 47.921 1993.1 47.2246 1993.1 46.3541C1993.1 45.5881 1992.76 44.9613 1992.06 44.4739C1991.4 43.9516 1990.3 43.6904 1988.77 43.6904H1983.91V49.1745ZM2052.19 54.3452V34.4459H2043V28.4395H2069.11V34.4459H2059.92V54.3452H2052.19ZM2091.81 54.9719C2089.79 54.9719 2087.89 54.676 2086.12 54.084C2084.38 53.4573 2082.86 52.5694 2081.57 51.4204C2080.28 50.2713 2079.27 48.8611 2078.54 47.1898C2077.81 45.4836 2077.45 43.5512 2077.45 41.3924C2077.45 39.2684 2077.81 37.3707 2078.54 35.6994C2079.31 33.9932 2080.32 32.5656 2081.57 31.4166C2082.83 30.2327 2084.25 29.3448 2085.85 28.7529C2087.49 28.1261 2089.18 27.8128 2090.92 27.8128C2092.91 27.8128 2094.66 28.1261 2096.2 28.7529C2097.73 29.3796 2099 30.2501 2100.01 31.3643C2101.05 32.4786 2101.84 33.8017 2102.36 35.3338C2102.88 36.831 2103.14 38.4675 2103.14 40.2433C2103.14 40.9397 2103.09 41.6187 2102.99 42.2802C2102.92 42.907 2102.85 43.3771 2102.78 43.6904H2085.12C2085.51 45.5707 2086.36 46.9461 2087.68 47.8165C2089.01 48.687 2090.73 49.1223 2092.85 49.1223C2094.04 49.1223 2095.15 48.9656 2096.2 48.6522C2097.28 48.3388 2098.39 47.8862 2099.54 47.2942L2102.1 51.9426C2100.6 52.8828 2098.95 53.6314 2097.14 54.1885C2095.33 54.7108 2093.55 54.9719 2091.81 54.9719ZM2091.18 33.6624C2089.65 33.6624 2088.36 34.0629 2087.32 34.8637C2086.31 35.6645 2085.61 36.8832 2085.23 38.5197H2096.3C2095.92 35.2815 2094.21 33.6624 2091.18 33.6624ZM2124.8 54.9719C2120.65 54.9719 2117.47 53.4921 2115.24 50.5325C2113.01 47.538 2111.9 43.4119 2111.9 38.1541C2111.9 34.2892 2112.3 31.1206 2113.1 28.6484C2113.9 26.1414 2115.01 24.1393 2116.44 22.6421C2117.9 21.1448 2119.64 20.048 2121.66 19.3516C2123.68 18.6204 2125.91 18.0807 2128.35 17.7325C2129.95 17.5236 2131.19 17.3147 2132.06 17.1058C2132.93 16.8969 2133.78 16.6009 2134.62 16.2179L2136.08 22.9032C2135.38 23.4255 2134.48 23.8433 2133.36 24.1567C2132.28 24.4353 2131.13 24.6616 2129.92 24.8357C2128.07 25.0794 2126.52 25.3232 2125.27 25.5669C2124.05 25.8106 2123.02 26.1937 2122.19 26.7159C2121.39 27.2382 2120.78 27.9869 2120.36 28.9618C2119.94 29.9367 2119.64 31.2599 2119.47 32.9312C2120.38 31.8866 2121.49 31.1032 2122.81 30.5809C2124.14 30.0238 2125.53 29.7452 2126.99 29.7452C2128.35 29.7452 2129.64 30.0064 2130.86 30.5287C2132.11 31.0162 2133.19 31.7648 2134.09 32.7745C2135 33.7495 2135.71 34.9856 2136.24 36.4828C2136.79 37.98 2137.07 39.721 2137.07 41.7057C2137.07 43.6904 2136.76 45.501 2136.13 47.1376C2135.54 48.7741 2134.7 50.1843 2133.62 51.3681C2132.54 52.5172 2131.24 53.4051 2129.71 54.0318C2128.21 54.6586 2126.57 54.9719 2124.8 54.9719ZM2124.75 48.7567C2126.24 48.7567 2127.36 48.1299 2128.09 46.8764C2128.82 45.6229 2129.18 43.8994 2129.18 41.7057C2129.18 39.4076 2128.78 37.7885 2127.98 36.8484C2127.18 35.8735 2126.09 35.386 2124.69 35.386C2123.79 35.386 2122.85 35.6297 2121.87 36.1172C2120.9 36.5699 2120.01 37.4055 2119.21 38.6242V39.9822C2119.21 42.9418 2119.7 45.1529 2120.67 46.6153C2121.65 48.0429 2123 48.7567 2124.75 48.7567ZM2160.19 54.9719C2158.17 54.9719 2156.27 54.676 2154.5 54.084C2152.75 53.4573 2151.24 52.5694 2149.95 51.4204C2148.66 50.2713 2147.65 48.8611 2146.92 47.1898C2146.19 45.4836 2145.83 43.5512 2145.83 41.3924C2145.83 39.2684 2146.19 37.3707 2146.92 35.6994C2147.69 33.9932 2148.7 32.5656 2149.95 31.4166C2151.21 30.2327 2152.63 29.3448 2154.23 28.7529C2155.87 28.1261 2157.56 27.8128 2159.3 27.8128C2161.29 27.8128 2163.04 28.1261 2164.58 28.7529C2166.11 29.3796 2167.38 30.2501 2168.39 31.3643C2169.43 32.4786 2170.22 33.8017 2170.74 35.3338C2171.26 36.831 2171.52 38.4675 2171.52 40.2433C2171.52 40.9397 2171.47 41.6187 2171.37 42.2802C2171.3 42.907 2171.23 43.3771 2171.16 43.6904H2153.5C2153.89 45.5707 2154.74 46.9461 2156.06 47.8165C2157.39 48.687 2159.11 49.1223 2161.23 49.1223C2162.42 49.1223 2163.53 48.9656 2164.58 48.6522C2165.66 48.3388 2166.77 47.8862 2167.92 47.2942L2170.48 51.9426C2168.98 52.8828 2167.33 53.6314 2165.52 54.1885C2163.71 54.7108 2161.93 54.9719 2160.19 54.9719ZM2159.56 33.6624C2158.03 33.6624 2156.74 34.0629 2155.7 34.8637C2154.69 35.6645 2153.99 36.8832 2153.61 38.5197H2164.68C2164.3 35.2815 2162.59 33.6624 2159.56 33.6624ZM2192.81 54.9719C2191 54.9719 2189.54 54.3974 2188.42 53.2484C2187.31 52.0645 2186.75 50.6021 2186.75 48.8611C2186.75 47.9906 2186.89 47.1898 2187.17 46.4586C2187.48 45.6926 2187.9 45.031 2188.42 44.4739C2188.95 43.9168 2189.57 43.4815 2190.3 43.1681C2191.07 42.8548 2191.91 42.6981 2192.81 42.6981C2193.72 42.6981 2194.53 42.8548 2195.27 43.1681C2196.03 43.4815 2196.68 43.9168 2197.2 44.4739C2197.72 45.031 2198.12 45.6926 2198.4 46.4586C2198.71 47.1898 2198.87 47.9906 2198.87 48.8611C2198.87 50.6021 2198.31 52.0645 2197.2 53.2484C2196.08 54.3974 2194.62 54.9719 2192.81 54.9719ZM2227 54.9719C2225.19 54.9719 2223.73 54.3974 2222.61 53.2484C2221.5 52.0645 2220.94 50.6021 2220.94 48.8611C2220.94 47.9906 2221.08 47.1898 2221.36 46.4586C2221.67 45.6926 2222.09 45.031 2222.61 44.4739C2223.14 43.9168 2223.76 43.4815 2224.49 43.1681C2225.26 42.8548 2226.1 42.6981 2227 42.6981C2227.91 42.6981 2228.72 42.8548 2229.46 43.1681C2230.22 43.4815 2230.87 43.9168 2231.39 44.4739C2231.91 45.031 2232.31 45.6926 2232.59 46.4586C2232.9 47.1898 2233.06 47.9906 2233.06 48.8611C2233.06 50.6021 2232.5 52.0645 2231.39 53.2484C2230.27 54.3974 2228.81 54.9719 2227 54.9719ZM2261.19 54.9719C2259.38 54.9719 2257.92 54.3974 2256.8 53.2484C2255.69 52.0645 2255.13 50.6021 2255.13 48.8611C2255.13 47.9906 2255.27 47.1898 2255.55 46.4586C2255.86 45.6926 2256.28 45.031 2256.8 44.4739C2257.33 43.9168 2257.95 43.4815 2258.68 43.1681C2259.45 42.8548 2260.29 42.6981 2261.19 42.6981C2262.1 42.6981 2262.91 42.8548 2263.65 43.1681C2264.41 43.4815 2265.06 43.9168 2265.58 44.4739C2266.1 45.031 2266.5 45.6926 2266.78 46.4586C2267.09 47.1898 2267.25 47.9906 2267.25 48.8611C2267.25 50.6021 2266.69 52.0645 2265.58 53.2484C2264.46 54.3974 2263 54.9719 2261.19 54.9719Z" fill="#E30D29"/>
<path d="M1158.76 54V28.0943H1166.44V37.4433H1174.9V28.0943H1182.58V54H1174.9V44.1287H1166.44V54H1158.76ZM1206.42 54.6268C1204.41 54.6268 1202.51 54.3308 1200.73 53.7389C1198.99 53.1121 1197.48 52.2242 1196.19 51.0752C1194.9 49.9261 1193.89 48.5159 1193.16 46.8446C1192.43 45.1384 1192.06 43.206 1192.06 41.0472C1192.06 38.9232 1192.43 37.0255 1193.16 35.3542C1193.92 33.648 1194.93 32.2204 1196.19 31.0714C1197.44 29.8875 1198.87 28.9996 1200.47 28.4077C1202.11 27.7809 1203.8 27.4676 1205.54 27.4676C1207.52 27.4676 1209.28 27.7809 1210.81 28.4077C1212.34 29.0344 1213.62 29.9049 1214.62 31.0192C1215.67 32.1334 1216.45 33.4565 1216.98 34.9886C1217.5 36.4858 1217.76 38.1223 1217.76 39.8981C1217.76 40.5945 1217.71 41.2735 1217.6 41.9351C1217.53 42.5618 1217.46 43.0319 1217.39 43.3452H1199.74C1200.12 45.2255 1200.98 46.6009 1202.3 47.4714C1203.62 48.3418 1205.35 48.7771 1207.47 48.7771C1208.65 48.7771 1209.77 48.6204 1210.81 48.307C1211.89 47.9936 1213.01 47.541 1214.15 46.9491L1216.71 51.5975C1215.22 52.5376 1213.56 53.2862 1211.75 53.8433C1209.94 54.3656 1208.17 54.6268 1206.42 54.6268ZM1205.8 33.3172C1204.27 33.3172 1202.98 33.7177 1201.93 34.5185C1200.92 35.3194 1200.23 36.538 1199.84 38.1746H1210.92C1210.53 34.9363 1208.83 33.3172 1205.8 33.3172ZM1261.33 63.6102V28.0943H1267.6L1268.17 30.7058H1268.33C1269.37 29.7657 1270.57 28.9996 1271.93 28.4077C1273.29 27.7809 1274.67 27.4676 1276.06 27.4676C1277.66 27.4676 1279.1 27.7809 1280.39 28.4077C1281.68 29.0344 1282.78 29.9223 1283.68 31.0714C1284.59 32.2204 1285.27 33.6132 1285.72 35.2497C1286.21 36.8514 1286.45 38.6446 1286.45 40.6293C1286.45 42.8578 1286.14 44.8425 1285.51 46.5835C1284.88 48.2896 1284.05 49.752 1283 50.9707C1281.96 52.1546 1280.76 53.0599 1279.4 53.6866C1278.08 54.3134 1276.68 54.6268 1275.22 54.6268C1272.85 54.6268 1270.73 53.6866 1268.85 51.8064H1268.64L1269.01 56.0369V63.6102H1261.33ZM1273.45 48.3592C1274.91 48.3592 1276.13 47.7673 1277.1 46.5835C1278.08 45.3648 1278.56 43.4149 1278.56 40.7338C1278.56 36.068 1276.98 33.7351 1273.81 33.7351C1272.18 33.7351 1270.57 34.5359 1269.01 36.1376V46.6357C1269.74 47.2624 1270.49 47.7151 1271.25 47.9936C1272.05 48.2374 1272.78 48.3592 1273.45 48.3592ZM1307.43 54.6268C1305.72 54.6268 1304.07 54.3308 1302.47 53.7389C1300.9 53.1121 1299.49 52.2242 1298.23 51.0752C1297.02 49.9261 1296.04 48.5159 1295.31 46.8446C1294.58 45.1384 1294.21 43.206 1294.21 41.0472C1294.21 38.8884 1294.58 36.9733 1295.31 35.302C1296.04 33.5958 1297.02 32.1682 1298.23 31.0192C1299.49 29.8701 1300.9 28.9996 1302.47 28.4077C1304.07 27.7809 1305.72 27.4676 1307.43 27.4676C1309.13 27.4676 1310.77 27.7809 1312.34 28.4077C1313.94 28.9996 1315.35 29.8701 1316.57 31.0192C1317.82 32.1682 1318.81 33.5958 1319.54 35.302C1320.28 36.9733 1320.64 38.8884 1320.64 41.0472C1320.64 43.206 1320.28 45.1384 1319.54 46.8446C1318.81 48.5159 1317.82 49.9261 1316.57 51.0752C1315.35 52.2242 1313.94 53.1121 1312.34 53.7389C1310.77 54.3308 1309.13 54.6268 1307.43 54.6268ZM1307.43 48.4115C1309.2 48.4115 1310.53 47.7499 1311.4 46.4268C1312.3 45.1036 1312.75 43.3104 1312.75 41.0472C1312.75 38.7839 1312.3 36.9907 1311.4 35.6676C1310.53 34.3444 1309.2 33.6828 1307.43 33.6828C1305.65 33.6828 1304.31 34.3444 1303.41 35.6676C1302.53 36.9907 1302.1 38.7839 1302.1 41.0472C1302.1 43.3104 1302.53 45.1036 1303.41 46.4268C1304.31 47.7499 1305.65 48.4115 1307.43 48.4115ZM1343.86 54.6268C1341.81 54.6268 1339.91 54.3308 1338.17 53.7389C1336.43 53.1121 1334.9 52.2242 1333.57 51.0752C1332.29 49.9261 1331.28 48.5159 1330.54 46.8446C1329.81 45.1384 1329.45 43.206 1329.45 41.0472C1329.45 38.8884 1329.85 36.9733 1330.65 35.302C1331.48 33.5958 1332.58 32.1682 1333.94 31.0192C1335.33 29.8701 1336.93 28.9996 1338.74 28.4077C1340.55 27.7809 1342.45 27.4676 1344.44 27.4676C1346.49 27.4676 1348.34 27.7984 1349.97 28.4599C1351.64 29.1215 1353.04 29.9572 1354.15 30.9669L1350.6 35.7198C1348.69 34.3618 1346.77 33.6828 1344.86 33.6828C1342.63 33.6828 1340.82 34.3444 1339.42 35.6676C1338.03 36.9907 1337.33 38.7839 1337.33 41.0472C1337.33 43.3104 1338 45.1036 1339.32 46.4268C1340.68 47.7499 1342.44 48.4115 1344.59 48.4115C1345.95 48.4115 1347.19 48.1677 1348.3 47.6803C1349.45 47.1928 1350.5 46.6183 1351.44 45.9567L1354.52 50.814C1352.95 52.1372 1351.23 53.1121 1349.35 53.7389C1347.47 54.3308 1345.64 54.6268 1343.86 54.6268ZM1371.94 54V34.1007H1362.75V28.0943H1388.86V34.1007H1379.67V54H1371.94ZM1411.56 54.6268C1409.54 54.6268 1407.65 54.3308 1405.87 53.7389C1404.13 53.1121 1402.61 52.2242 1401.33 51.0752C1400.04 49.9261 1399.03 48.5159 1398.3 46.8446C1397.57 45.1384 1397.2 43.206 1397.2 41.0472C1397.2 38.9232 1397.57 37.0255 1398.3 35.3542C1399.06 33.648 1400.07 32.2204 1401.33 31.0714C1402.58 29.8875 1404.01 28.9996 1405.61 28.4077C1407.25 27.7809 1408.93 27.4676 1410.68 27.4676C1412.66 27.4676 1414.42 27.7809 1415.95 28.4077C1417.48 29.0344 1418.75 29.9049 1419.76 31.0192C1420.81 32.1334 1421.59 33.4565 1422.11 34.9886C1422.64 36.4858 1422.9 38.1223 1422.9 39.8981C1422.9 40.5945 1422.84 41.2735 1422.74 41.9351C1422.67 42.5618 1422.6 43.0319 1422.53 43.3452H1404.88C1405.26 45.2255 1406.11 46.6009 1407.44 47.4714C1408.76 48.3418 1410.48 48.7771 1412.61 48.7771C1413.79 48.7771 1414.91 48.6204 1415.95 48.307C1417.03 47.9936 1418.14 47.541 1419.29 46.9491L1421.85 51.5975C1420.36 52.5376 1418.7 53.2862 1416.89 53.8433C1415.08 54.3656 1413.3 54.6268 1411.56 54.6268ZM1410.94 33.3172C1409.4 33.3172 1408.12 33.7177 1407.07 34.5185C1406.06 35.3194 1405.37 36.538 1404.98 38.1746H1416.05C1415.67 34.9363 1413.97 33.3172 1410.94 33.3172ZM1430.35 54V28.0943H1437.24V47.9936H1441.05V28.0943H1447.32V47.9936H1451.13V28.0943H1458.03V54H1430.35ZM1508.7 54V34.1007H1499.51V28.0943H1525.62V34.1007H1516.43V54H1508.7ZM1534.9 54V28.0943H1542.32V35.302C1542.32 36.6251 1542.25 38.0875 1542.11 39.6892C1541.97 41.2909 1541.83 42.8926 1541.69 44.4943H1541.85C1542.26 43.6934 1542.77 42.7881 1543.36 41.7784C1543.99 40.7338 1544.49 39.8285 1544.87 39.0625L1551.61 28.0943H1558.61V54H1551.19V46.7924C1551.19 45.4692 1551.26 44.0068 1551.4 42.4051C1551.54 40.8034 1551.7 39.2017 1551.87 37.6H1551.66C1551.46 37.9831 1551.21 38.4183 1550.93 38.9058C1550.69 39.3932 1550.43 39.8807 1550.15 40.3682C1549.87 40.8557 1549.61 41.3431 1549.37 41.8306C1549.12 42.2833 1548.9 42.6837 1548.69 43.0319L1541.9 54H1534.9Z" fill="#EBEBEC"/>
<g style="mix-blend-mode:lighten" opacity="0.8" filter="url(#filter2_f)">
<path d="M1599.26 40.2433V33.9758H1623.91V40.2433H1599.26ZM1667.64 54.3452V28.2306H1676.62V37.214H1683.31V28.2306H1692.29V54.3452H1683.31V45.0484H1676.62V54.3452H1667.64ZM1715.72 54.9719C1713.67 54.9719 1711.74 54.676 1709.92 54.084C1708.15 53.4573 1706.6 52.5694 1705.28 51.4204C1703.99 50.2365 1702.96 48.7915 1702.19 47.0853C1701.46 45.3792 1701.1 43.4467 1701.1 41.2879C1701.1 39.1639 1701.48 37.2488 1702.25 35.5427C1703.01 33.8365 1704.02 32.4089 1705.28 31.2599C1706.56 30.076 1708.03 29.1707 1709.66 28.544C1711.33 27.9172 1713.04 27.6038 1714.78 27.6038C1716.84 27.6038 1718.63 27.9346 1720.16 28.5962C1721.73 29.2578 1723.03 30.1631 1724.08 31.3121C1725.12 32.4612 1725.91 33.8017 1726.43 35.3338C1726.95 36.8658 1727.21 38.5023 1727.21 40.2433C1727.21 41.0442 1727.16 41.7928 1727.06 42.4892C1726.99 43.1856 1726.92 43.6904 1726.85 44.0038H1710.08C1710.46 45.4662 1711.23 46.5282 1712.38 47.1898C1713.53 47.8514 1715.06 48.1821 1716.98 48.1821C1718.02 48.1821 1719.03 48.0603 1720.01 47.8165C1721.01 47.538 1722.09 47.1376 1723.24 46.6153L1726.17 51.9426C1724.6 52.9524 1722.88 53.7184 1721 54.2407C1719.12 54.7282 1717.36 54.9719 1715.72 54.9719ZM1715.1 34.3936C1712.52 34.3936 1710.86 35.6471 1710.13 38.1541H1719.27C1718.89 35.6471 1717.5 34.3936 1715.1 34.3936ZM1770.21 63.5375V28.2306H1777.52L1778.15 30.6331H1778.36C1779.37 29.7278 1780.5 28.9966 1781.75 28.4395C1783.04 27.8824 1784.35 27.6038 1785.67 27.6038C1787.24 27.6038 1788.66 27.9172 1789.95 28.544C1791.24 29.1707 1792.32 30.0586 1793.19 31.2077C1794.09 32.3567 1794.79 33.7495 1795.28 35.386C1795.77 37.0225 1796.01 38.8505 1796.01 40.8701C1796.01 43.1333 1795.7 45.1354 1795.07 46.8764C1794.44 48.6174 1793.61 50.0972 1792.56 51.3159C1791.55 52.4998 1790.37 53.4051 1789.01 54.0318C1787.69 54.6586 1786.31 54.9719 1784.89 54.9719C1782.69 54.9719 1780.72 54.1015 1778.98 52.3605H1778.77L1779.19 56.3299V63.5375H1770.21ZM1782.74 47.6599C1783.3 47.6599 1783.82 47.5554 1784.31 47.3465C1784.8 47.1027 1785.22 46.7197 1785.56 46.1974C1785.95 45.6751 1786.24 44.9962 1786.45 44.1605C1786.7 43.29 1786.82 42.228 1786.82 40.9745C1786.82 38.8157 1786.49 37.2662 1785.83 36.3261C1785.2 35.386 1784.24 34.9159 1782.95 34.9159C1782.26 34.9159 1781.61 35.0552 1781.02 35.3338C1780.43 35.6123 1779.82 36.0998 1779.19 36.7962V46.4064C1779.75 46.8938 1780.32 47.2246 1780.92 47.3987C1781.54 47.5728 1782.15 47.6599 1782.74 47.6599ZM1816.72 54.9719C1814.98 54.9719 1813.29 54.676 1811.66 54.084C1810.06 53.4573 1808.63 52.5694 1807.38 51.4204C1806.12 50.2365 1805.11 48.7915 1804.35 47.0853C1803.61 45.3792 1803.25 43.4467 1803.25 41.2879C1803.25 39.1291 1803.61 37.1966 1804.35 35.4905C1805.11 33.7843 1806.12 32.3567 1807.38 31.2077C1808.63 30.0238 1810.06 29.1359 1811.66 28.544C1813.29 27.9172 1814.98 27.6038 1816.72 27.6038C1818.43 27.6038 1820.08 27.9172 1821.69 28.544C1823.32 29.1359 1824.77 30.0238 1826.02 31.2077C1827.27 32.3567 1828.28 33.7843 1829.05 35.4905C1829.82 37.1966 1830.2 39.1291 1830.2 41.2879C1830.2 43.4467 1829.82 45.3792 1829.05 47.0853C1828.28 48.7915 1827.27 50.2365 1826.02 51.4204C1824.77 52.5694 1823.32 53.4573 1821.69 54.084C1820.08 54.676 1818.43 54.9719 1816.72 54.9719ZM1816.72 47.7643C1818.26 47.7643 1819.35 47.1898 1820.01 46.0407C1820.68 44.8569 1821.01 43.2726 1821.01 41.2879C1821.01 39.3032 1820.68 37.7363 1820.01 36.5873C1819.35 35.4034 1818.26 34.8115 1816.72 34.8115C1815.19 34.8115 1814.1 35.4034 1813.43 36.5873C1812.77 37.7363 1812.44 39.3032 1812.44 41.2879C1812.44 43.2726 1812.77 44.8569 1813.43 46.0407C1814.1 47.1898 1815.19 47.7643 1816.72 47.7643ZM1853.11 54.9719C1851.05 54.9719 1849.12 54.676 1847.31 54.084C1845.53 53.4573 1843.99 52.5694 1842.66 51.4204C1841.37 50.2365 1840.35 48.7915 1839.58 47.0853C1838.85 45.3792 1838.48 43.4467 1838.48 41.2879C1838.48 39.1291 1838.9 37.1966 1839.74 35.4905C1840.57 33.7843 1841.69 32.3567 1843.08 31.2077C1844.51 30.0238 1846.14 29.1359 1847.99 28.544C1849.83 27.9172 1851.77 27.6038 1853.79 27.6038C1855.84 27.6038 1857.72 27.9172 1859.43 28.544C1861.13 29.1707 1862.54 30.0064 1863.66 31.051L1859.58 36.5873C1858.61 35.9257 1857.69 35.473 1856.82 35.2293C1855.98 34.9508 1855.14 34.8115 1854.31 34.8115C1852.32 34.8115 1850.72 35.4034 1849.5 36.5873C1848.29 37.7363 1847.68 39.3032 1847.68 41.2879C1847.68 43.2726 1848.27 44.8569 1849.45 46.0407C1850.64 47.1898 1852.15 47.7643 1854 47.7643C1855.28 47.7643 1856.45 47.538 1857.5 47.0853C1858.54 46.6327 1859.51 46.1278 1860.42 45.5707L1863.97 51.2114C1862.34 52.5346 1860.54 53.4921 1858.59 54.084C1856.68 54.676 1854.85 54.9719 1853.11 54.9719ZM1880.61 54.3452V35.2293H1871.73V28.2306H1898.47V35.2293H1889.6V54.3452H1880.61ZM1920.86 54.9719C1918.81 54.9719 1916.87 54.676 1915.06 54.084C1913.29 53.4573 1911.74 52.5694 1910.41 51.4204C1909.13 50.2365 1908.1 48.7915 1907.33 47.0853C1906.6 45.3792 1906.24 43.4467 1906.24 41.2879C1906.24 39.1639 1906.62 37.2488 1907.39 35.5427C1908.15 33.8365 1909.16 32.4089 1910.41 31.2599C1911.7 30.076 1913.17 29.1707 1914.8 28.544C1916.47 27.9172 1918.18 27.6038 1919.92 27.6038C1921.97 27.6038 1923.77 27.9346 1925.3 28.5962C1926.87 29.2578 1928.17 30.1631 1929.22 31.3121C1930.26 32.4612 1931.05 33.8017 1931.57 35.3338C1932.09 36.8658 1932.35 38.5023 1932.35 40.2433C1932.35 41.0442 1932.3 41.7928 1932.19 42.4892C1932.12 43.1856 1932.05 43.6904 1931.99 44.0038H1915.22C1915.6 45.4662 1916.37 46.5282 1917.52 47.1898C1918.67 47.8514 1920.2 48.1821 1922.11 48.1821C1923.16 48.1821 1924.17 48.0603 1925.14 47.8165C1926.15 47.538 1927.23 47.1376 1928.38 46.6153L1931.31 51.9426C1929.74 52.9524 1928.02 53.7184 1926.14 54.2407C1924.26 54.7282 1922.5 54.9719 1920.86 54.9719ZM1920.23 34.3936C1917.66 34.3936 1916 35.6471 1915.27 38.1541H1924.41C1924.03 35.6471 1922.64 34.3936 1920.23 34.3936ZM1975.97 54.3452V28.2306H1988.4C1989.94 28.2306 1991.38 28.3525 1992.74 28.5962C1994.13 28.8051 1995.35 29.1881 1996.4 29.7452C1997.44 30.2675 1998.26 30.9813 1998.85 31.8866C1999.48 32.7571 1999.79 33.8713 1999.79 35.2293C1999.79 36.2391 1999.46 37.2662 1998.8 38.3108C1998.14 39.3554 1997 40.104 1995.4 40.5567V40.7656C1997.07 41.1834 1998.38 41.8624 1999.32 42.8025C2000.26 43.7427 2000.73 45.0832 2000.73 46.8242C2000.73 48.1821 2000.42 49.3486 1999.79 50.3235C1999.16 51.2637 1998.31 52.0297 1997.23 52.6216C1996.19 53.2136 1994.95 53.6488 1993.52 53.9274C1992.13 54.2059 1990.67 54.3452 1989.14 54.3452H1975.97ZM1984.75 38.1541H1988.04C1989.15 38.1541 1989.95 37.98 1990.44 37.6318C1990.96 37.2837 1991.22 36.7962 1991.22 36.1694C1991.22 35.5427 1990.98 35.0378 1990.49 34.6548C1990.01 34.2718 1989.17 34.0803 1987.99 34.0803H1984.75V38.1541ZM1984.75 48.4955H1988.72C1990.01 48.4955 1990.88 48.2692 1991.33 47.8165C1991.82 47.3639 1992.06 46.8242 1992.06 46.1974C1992.06 45.6055 1991.8 45.1006 1991.28 44.6828C1990.79 44.2301 1989.94 44.0038 1988.72 44.0038H1984.75V48.4955ZM2051.56 54.3452V35.2293H2042.68V28.2306H2069.42V35.2293H2060.54V54.3452H2051.56ZM2091.81 54.9719C2089.75 54.9719 2087.82 54.676 2086.01 54.084C2084.24 53.4573 2082.69 52.5694 2081.36 51.4204C2080.07 50.2365 2079.05 48.7915 2078.28 47.0853C2077.55 45.3792 2077.18 43.4467 2077.18 41.2879C2077.18 39.1639 2077.57 37.2488 2078.33 35.5427C2079.1 33.8365 2080.11 32.4089 2081.36 31.2599C2082.65 30.076 2084.11 29.1707 2085.75 28.544C2087.42 27.9172 2089.13 27.6038 2090.87 27.6038C2092.92 27.6038 2094.72 27.9346 2096.25 28.5962C2097.82 29.2578 2099.12 30.1631 2100.17 31.3121C2101.21 32.4612 2101.99 33.8017 2102.52 35.3338C2103.04 36.8658 2103.3 38.5023 2103.3 40.2433C2103.3 41.0442 2103.25 41.7928 2103.14 42.4892C2103.07 43.1856 2103 43.6904 2102.93 44.0038H2086.17C2086.55 45.4662 2087.32 46.5282 2088.47 47.1898C2089.62 47.8514 2091.15 48.1821 2093.06 48.1821C2094.11 48.1821 2095.12 48.0603 2096.09 47.8165C2097.1 47.538 2098.18 47.1376 2099.33 46.6153L2102.25 51.9426C2100.69 52.9524 2098.96 53.7184 2097.08 54.2407C2095.2 54.7282 2093.45 54.9719 2091.81 54.9719ZM2091.18 34.3936C2088.61 34.3936 2086.95 35.6471 2086.22 38.1541H2095.36C2094.98 35.6471 2093.58 34.3936 2091.18 34.3936ZM2124.75 54.9719C2120.5 54.9719 2117.24 53.4747 2114.98 50.4802C2112.72 47.4509 2111.58 43.2378 2111.58 37.8408C2111.58 34.1151 2111.98 31.0336 2112.78 28.5962C2113.62 26.1588 2114.77 24.1915 2116.23 22.6943C2117.69 21.1971 2119.44 20.0828 2121.45 19.3516C2123.47 18.6204 2125.69 18.0981 2128.09 17.7848C2129.72 17.5758 2131.01 17.3669 2131.95 17.158C2132.93 16.9143 2133.83 16.6009 2134.67 16.2179L2136.34 23.9478C2135.64 24.5397 2134.7 24.9924 2133.52 25.3058C2132.37 25.6191 2131.19 25.8629 2129.97 26.037C2128.26 26.2459 2126.83 26.4548 2125.69 26.6637C2124.54 26.8378 2123.6 27.1338 2122.87 27.5516C2122.13 27.9694 2121.58 28.5614 2121.19 29.3274C2120.81 30.0934 2120.55 31.138 2120.41 32.4612C2121.25 31.5559 2122.27 30.8769 2123.49 30.4242C2124.71 29.9367 2126 29.693 2127.36 29.693C2128.65 29.693 2129.88 29.9367 2131.07 30.4242C2132.28 30.9117 2133.35 31.6603 2134.25 32.6701C2135.19 33.645 2135.92 34.8985 2136.44 36.4306C2137 37.9278 2137.28 39.6862 2137.28 41.7057C2137.28 43.6904 2136.97 45.501 2136.34 47.1376C2135.71 48.7741 2134.84 50.1669 2133.73 51.3159C2132.65 52.4649 2131.33 53.3702 2129.76 54.0318C2128.23 54.6586 2126.56 54.9719 2124.75 54.9719ZM2124.64 47.7643C2125.86 47.7643 2126.73 47.2246 2127.25 46.1452C2127.81 45.0658 2128.09 43.586 2128.09 41.7057C2128.09 39.5121 2127.76 38.0497 2127.1 37.3185C2126.47 36.5873 2125.63 36.2217 2124.59 36.2217C2123.82 36.2217 2123.04 36.4306 2122.24 36.8484C2121.44 37.2314 2120.74 37.9104 2120.15 38.8853V40.0344C2120.15 42.7503 2120.55 44.7176 2121.35 45.9363C2122.19 47.155 2123.28 47.7643 2124.64 47.7643ZM2160.19 54.9719C2158.13 54.9719 2156.2 54.676 2154.39 54.084C2152.62 53.4573 2151.07 52.5694 2149.74 51.4204C2148.45 50.2365 2147.43 48.7915 2146.66 47.0853C2145.93 45.3792 2145.56 43.4467 2145.56 41.2879C2145.56 39.1639 2145.95 37.2488 2146.71 35.5427C2147.48 33.8365 2148.49 32.4089 2149.74 31.2599C2151.03 30.076 2152.49 29.1707 2154.13 28.544C2155.8 27.9172 2157.51 27.6038 2159.25 27.6038C2161.3 27.6038 2163.1 27.9346 2164.63 28.5962C2166.19 29.2578 2167.5 30.1631 2168.55 31.3121C2169.59 32.4612 2170.37 33.8017 2170.9 35.3338C2171.42 36.8658 2171.68 38.5023 2171.68 40.2433C2171.68 41.0442 2171.63 41.7928 2171.52 42.4892C2171.45 43.1856 2171.38 43.6904 2171.31 44.0038H2154.55C2154.93 45.4662 2155.7 46.5282 2156.85 47.1898C2157.99 47.8514 2159.53 48.1821 2161.44 48.1821C2162.49 48.1821 2163.5 48.0603 2164.47 47.8165C2165.48 47.538 2166.56 47.1376 2167.71 46.6153L2170.63 51.9426C2169.07 52.9524 2167.34 53.7184 2165.46 54.2407C2163.58 54.7282 2161.83 54.9719 2160.19 54.9719ZM2159.56 34.3936C2156.99 34.3936 2155.33 35.6471 2154.6 38.1541H2163.74C2163.36 35.6471 2161.96 34.3936 2159.56 34.3936ZM2192.81 54.9719C2191.8 54.9719 2190.88 54.7978 2190.04 54.4496C2189.21 54.1015 2188.49 53.614 2187.9 52.9872C2187.31 52.3605 2186.84 51.6467 2186.49 50.8458C2186.18 50.0102 2186.02 49.1223 2186.02 48.1821C2186.02 47.242 2186.18 46.3715 2186.49 45.5707C2186.84 44.735 2187.31 44.0212 2187.9 43.4293C2188.49 42.8025 2189.21 42.3151 2190.04 41.9669C2190.88 41.5839 2191.8 41.3924 2192.81 41.3924C2193.82 41.3924 2194.74 41.5839 2195.58 41.9669C2196.42 42.3151 2197.13 42.8025 2197.72 43.4293C2198.31 44.0212 2198.77 44.735 2199.08 45.5707C2199.43 46.3715 2199.6 47.242 2199.6 48.1821C2199.6 49.1223 2199.43 50.0102 2199.08 50.8458C2198.77 51.6467 2198.31 52.3605 2197.72 52.9872C2197.13 53.614 2196.42 54.1015 2195.58 54.4496C2194.74 54.7978 2193.82 54.9719 2192.81 54.9719ZM2227 54.9719C2225.99 54.9719 2225.07 54.7978 2224.23 54.4496C2223.4 54.1015 2222.68 53.614 2222.09 52.9872C2221.5 52.3605 2221.03 51.6467 2220.68 50.8458C2220.37 50.0102 2220.21 49.1223 2220.21 48.1821C2220.21 47.242 2220.37 46.3715 2220.68 45.5707C2221.03 44.735 2221.5 44.0212 2222.09 43.4293C2222.68 42.8025 2223.4 42.3151 2224.23 41.9669C2225.07 41.5839 2225.99 41.3924 2227 41.3924C2228.01 41.3924 2228.93 41.5839 2229.77 41.9669C2230.6 42.3151 2231.32 42.8025 2231.91 43.4293C2232.5 44.0212 2232.96 44.735 2233.27 45.5707C2233.62 46.3715 2233.79 47.242 2233.79 48.1821C2233.79 49.1223 2233.62 50.0102 2233.27 50.8458C2232.96 51.6467 2232.5 52.3605 2231.91 52.9872C2231.32 53.614 2230.6 54.1015 2229.77 54.4496C2228.93 54.7978 2228.01 54.9719 2227 54.9719ZM2261.19 54.9719C2260.18 54.9719 2259.26 54.7978 2258.42 54.4496C2257.59 54.1015 2256.87 53.614 2256.28 52.9872C2255.69 52.3605 2255.22 51.6467 2254.87 50.8458C2254.56 50.0102 2254.4 49.1223 2254.4 48.1821C2254.4 47.242 2254.56 46.3715 2254.87 45.5707C2255.22 44.735 2255.69 44.0212 2256.28 43.4293C2256.87 42.8025 2257.59 42.3151 2258.42 41.9669C2259.26 41.5839 2260.18 41.3924 2261.19 41.3924C2262.2 41.3924 2263.12 41.5839 2263.96 41.9669C2264.79 42.3151 2265.51 42.8025 2266.1 43.4293C2266.69 44.0212 2267.14 44.735 2267.46 45.5707C2267.81 46.3715 2267.98 47.242 2267.98 48.1821C2267.98 49.1223 2267.81 50.0102 2267.46 50.8458C2267.14 51.6467 2266.69 52.3605 2266.1 52.9872C2265.51 53.614 2264.79 54.1015 2263.96 54.4496C2263.12 54.7978 2262.2 54.9719 2261.19 54.9719Z" fill="#E12942"/>
</g>
<g style="mix-blend-mode:lighten" opacity="0.5" filter="url(#filter3_f)">
<path d="M1158.34 54V27.8854H1167.33V36.8688H1174.01V27.8854H1182.99V54H1174.01V44.7032H1167.33V54H1158.34ZM1206.42 54.6268C1204.37 54.6268 1202.44 54.3308 1200.63 53.7389C1198.85 53.1121 1197.3 52.2242 1195.98 51.0752C1194.69 49.8913 1193.66 48.4463 1192.9 46.7401C1192.17 45.034 1191.8 43.1015 1191.8 40.9427C1191.8 38.8187 1192.18 36.9036 1192.95 35.1975C1193.72 33.4913 1194.73 32.0637 1195.98 30.9147C1197.27 29.7308 1198.73 28.8255 1200.37 28.1988C1202.04 27.572 1203.74 27.2587 1205.48 27.2587C1207.54 27.2587 1209.33 27.5894 1210.86 28.251C1212.43 28.9126 1213.74 29.8179 1214.78 30.9669C1215.83 32.116 1216.61 33.4565 1217.13 34.9886C1217.65 36.5206 1217.92 38.1571 1217.92 39.8981C1217.92 40.699 1217.86 41.4476 1217.76 42.144C1217.69 42.8404 1217.62 43.3452 1217.55 43.6586H1200.78C1201.17 45.121 1201.93 46.183 1203.08 46.8446C1204.23 47.5062 1205.76 47.837 1207.68 47.837C1208.72 47.837 1209.73 47.7151 1210.71 47.4714C1211.72 47.1928 1212.8 46.7924 1213.95 46.2701L1216.87 51.5975C1215.3 52.6072 1213.58 53.3732 1211.7 53.8955C1209.82 54.383 1208.06 54.6268 1206.42 54.6268ZM1205.8 34.0485C1203.22 34.0485 1201.57 35.302 1200.84 37.809H1209.98C1209.59 35.302 1208.2 34.0485 1205.8 34.0485ZM1260.91 63.1923V27.8854H1268.22L1268.85 30.2879H1269.06C1270.07 29.3826 1271.2 28.6514 1272.45 28.0943C1273.74 27.5372 1275.05 27.2587 1276.37 27.2587C1277.94 27.2587 1279.37 27.572 1280.65 28.1988C1281.94 28.8255 1283.02 29.7134 1283.89 30.8625C1284.8 32.0115 1285.49 33.4043 1285.98 35.0408C1286.47 36.6773 1286.71 38.5053 1286.71 40.5249C1286.71 42.7881 1286.4 44.7903 1285.77 46.5312C1285.15 48.2722 1284.31 49.752 1283.27 50.9707C1282.26 52.1546 1281.07 53.0599 1279.71 53.6866C1278.39 54.3134 1277.02 54.6268 1275.59 54.6268C1273.39 54.6268 1271.43 53.7563 1269.69 52.0153H1269.48L1269.89 55.9847V63.1923H1260.91ZM1273.45 47.3147C1274 47.3147 1274.53 47.2102 1275.01 47.0013C1275.5 46.7576 1275.92 46.3745 1276.27 45.8522C1276.65 45.33 1276.95 44.651 1277.15 43.8153C1277.4 42.9448 1277.52 41.8828 1277.52 40.6293C1277.52 38.4705 1277.19 36.9211 1276.53 35.9809C1275.9 35.0408 1274.94 34.5707 1273.66 34.5707C1272.96 34.5707 1272.31 34.71 1271.72 34.9886C1271.13 35.2671 1270.52 35.7546 1269.89 36.451V46.0612C1270.45 46.5486 1271.03 46.8794 1271.62 47.0535C1272.25 47.2276 1272.85 47.3147 1273.45 47.3147ZM1307.43 54.6268C1305.69 54.6268 1304 54.3308 1302.36 53.7389C1300.76 53.1121 1299.33 52.2242 1298.08 51.0752C1296.82 49.8913 1295.81 48.4463 1295.05 46.7401C1294.32 45.034 1293.95 43.1015 1293.95 40.9427C1293.95 38.7839 1294.32 36.8514 1295.05 35.1453C1295.81 33.4391 1296.82 32.0115 1298.08 30.8625C1299.33 29.6786 1300.76 28.7907 1302.36 28.1988C1304 27.572 1305.69 27.2587 1307.43 27.2587C1309.13 27.2587 1310.79 27.572 1312.39 28.1988C1314.03 28.7907 1315.47 29.6786 1316.72 30.8625C1317.98 32.0115 1318.99 33.4391 1319.75 35.1453C1320.52 36.8514 1320.9 38.7839 1320.9 40.9427C1320.9 43.1015 1320.52 45.034 1319.75 46.7401C1318.99 48.4463 1317.98 49.8913 1316.72 51.0752C1315.47 52.2242 1314.03 53.1121 1312.39 53.7389C1310.79 54.3308 1309.13 54.6268 1307.43 54.6268ZM1307.43 47.4191C1308.96 47.4191 1310.06 46.8446 1310.72 45.6956C1311.38 44.5117 1311.71 42.9274 1311.71 40.9427C1311.71 38.958 1311.38 37.3911 1310.72 36.2421C1310.06 35.0582 1308.96 34.4663 1307.43 34.4663C1305.9 34.4663 1304.8 35.0582 1304.14 36.2421C1303.48 37.3911 1303.14 38.958 1303.14 40.9427C1303.14 42.9274 1303.48 44.5117 1304.14 45.6956C1304.8 46.8446 1305.9 47.4191 1307.43 47.4191ZM1343.81 54.6268C1341.76 54.6268 1339.82 54.3308 1338.01 53.7389C1336.24 53.1121 1334.69 52.2242 1333.36 51.0752C1332.08 49.8913 1331.05 48.4463 1330.28 46.7401C1329.55 45.034 1329.19 43.1015 1329.19 40.9427C1329.19 38.7839 1329.6 36.8514 1330.44 35.1453C1331.28 33.4391 1332.39 32.0115 1333.78 30.8625C1335.21 29.6786 1336.85 28.7907 1338.69 28.1988C1340.54 27.572 1342.47 27.2587 1344.49 27.2587C1346.54 27.2587 1348.42 27.572 1350.13 28.1988C1351.84 28.8255 1353.25 29.6612 1354.36 30.7058L1350.29 36.2421C1349.31 35.5805 1348.39 35.1279 1347.52 34.8841C1346.68 34.6056 1345.85 34.4663 1345.01 34.4663C1343.03 34.4663 1341.43 35.0582 1340.21 36.2421C1338.99 37.3911 1338.38 38.958 1338.38 40.9427C1338.38 42.9274 1338.97 44.5117 1340.15 45.6956C1341.34 46.8446 1342.85 47.4191 1344.7 47.4191C1345.99 47.4191 1347.15 47.1928 1348.2 46.7401C1349.24 46.2875 1350.22 45.7826 1351.12 45.2255L1354.67 50.8662C1353.04 52.1894 1351.24 53.1469 1349.29 53.7389C1347.38 54.3308 1345.55 54.6268 1343.81 54.6268ZM1371.31 54V34.8841H1362.44V27.8854H1389.18V34.8841H1380.3V54H1371.31ZM1411.56 54.6268C1409.51 54.6268 1407.58 54.3308 1405.77 53.7389C1403.99 53.1121 1402.44 52.2242 1401.12 51.0752C1399.83 49.8913 1398.8 48.4463 1398.04 46.7401C1397.3 45.034 1396.94 43.1015 1396.94 40.9427C1396.94 38.8187 1397.32 36.9036 1398.09 35.1975C1398.85 33.4913 1399.86 32.0637 1401.12 30.9147C1402.41 29.7308 1403.87 28.8255 1405.5 28.1988C1407.18 27.572 1408.88 27.2587 1410.62 27.2587C1412.68 27.2587 1414.47 27.5894 1416 28.251C1417.57 28.9126 1418.88 29.8179 1419.92 30.9669C1420.96 32.116 1421.75 33.4565 1422.27 34.9886C1422.79 36.5206 1423.05 38.1571 1423.05 39.8981C1423.05 40.699 1423 41.4476 1422.9 42.144C1422.83 42.8404 1422.76 43.3452 1422.69 43.6586H1405.92C1406.31 45.121 1407.07 46.183 1408.22 46.8446C1409.37 47.5062 1410.9 47.837 1412.82 47.837C1413.86 47.837 1414.87 47.7151 1415.85 47.4714C1416.86 47.1928 1417.94 46.7924 1419.08 46.2701L1422.01 51.5975C1420.44 52.6072 1418.72 53.3732 1416.84 53.8955C1414.96 54.383 1413.2 54.6268 1411.56 54.6268ZM1410.94 34.0485C1408.36 34.0485 1406.71 35.302 1405.97 37.809H1415.11C1414.73 35.302 1413.34 34.0485 1410.94 34.0485ZM1429.88 54V27.8854H1437.81V47.0013H1440.63V27.8854H1447.74V47.0013H1450.56V27.8854H1458.5V54H1429.88ZM1508.07 54V34.8841H1499.19V27.8854H1525.94V34.8841H1517.06V54H1508.07ZM1534.38 54V27.8854H1543.05V33.7873C1543.05 35.0756 1542.96 36.538 1542.79 38.1746C1542.65 39.7763 1542.49 41.3605 1542.32 42.9274H1542.47C1542.86 42.1266 1543.33 41.2213 1543.88 40.2115C1544.47 39.1669 1544.96 38.2616 1545.34 37.4956L1550.99 27.8854H1559.13V54H1550.46V48.0981C1550.46 46.8098 1550.55 45.3648 1550.72 43.7631C1550.9 42.1614 1551.07 40.5597 1551.25 38.958H1551.04C1550.65 39.7588 1550.18 40.6816 1549.63 41.7261C1549.07 42.7707 1548.6 43.6586 1548.22 44.3898L1542.52 54H1534.38Z" fill="white"/>
</g>
<defs>
<filter id="filter0_f" x="441.25" y="0.206905" width="700.742" height="79.3416" filterUnits="userSpaceOnUse" color-interpolation-filters="sRGB">
<feFlood flood-opacity="0" result="BackgroundImageFix"/>
<feBlend mode="normal" in="SourceGraphic" in2="BackgroundImageFix" result="shape"/>
<feGaussianBlur stdDeviation="8.00549" result="effect1_foregroundBlur"/>
</filter>
<filter id="filter1_f" x="0.331799" y="11.2478" width="432.813" height="67.9556" filterUnits="userSpaceOnUse" color-interpolation-filters="sRGB">
<feFlood flood-opacity="0" result="BackgroundImageFix"/>
<feBlend mode="normal" in="SourceGraphic" in2="BackgroundImageFix" result="shape"/>
<feGaussianBlur stdDeviation="8.00549" result="effect1_foregroundBlur"/>
</filter>
<filter id="filter2_f" x="1583.25" y="0.206909" width="700.742" height="79.3416" filterUnits="userSpaceOnUse" color-interpolation-filters="sRGB">
<feFlood flood-opacity="0" result="BackgroundImageFix"/>
<feBlend mode="normal" in="SourceGraphic" in2="BackgroundImageFix" result="shape"/>
<feGaussianBlur stdDeviation="8.00549" result="effect1_foregroundBlur"/>
</filter>
<filter id="filter3_f" x="1142.33" y="11.2477" width="432.813" height="67.9556" filterUnits="userSpaceOnUse" color-interpolation-filters="sRGB">
<feFlood flood-opacity="0" result="BackgroundImageFix"/>
<feBlend mode="normal" in="SourceGraphic" in2="BackgroundImageFix" result="shape"/>
<feGaussianBlur stdDeviation="8.00549" result="effect1_foregroundBlur"/>
</filter>
</defs>
</svg>
