<svg width="228" height="771" viewBox="0 0 228 771" fill="none" xmlns="http://www.w3.org/2000/svg">
<mask id="mask0" style="mask-type:alpha" maskUnits="userSpaceOnUse" x="6" y="99" width="111" height="654">
<path d="M44.5625 201L6.33687 99.6102H36.5903L52.5347 147.443C54.17 152.622 55.7372 157.8 57.2362 162.979C58.7352 168.157 60.2343 173.404 61.7333 178.719H62.551C64.05 173.404 65.4809 168.157 66.8437 162.979C68.3428 157.8 69.9099 152.622 71.5453 147.443L87.4896 99.6102H116.312L79.1086 201H44.5625ZM56.8274 458V380.118H16.1488V356.61H86.8764V458H56.8274ZM70.5232 340.666C64.6633 340.666 59.8255 339.03 56.0097 335.76C52.3302 332.489 50.4905 328.06 50.4905 322.473C50.4905 316.886 52.3302 312.388 56.0097 308.981C59.8255 305.438 64.6633 303.667 70.5232 303.667C76.3831 303.667 81.1528 305.438 84.8322 308.981C88.648 312.388 90.5558 316.886 90.5558 322.473C90.5558 328.06 88.648 332.489 84.8322 335.76C81.1528 339.03 76.3831 340.666 70.5232 340.666ZM14.7179 752.612V613.61H39.2477L41.4962 623.831H42.1095C46.1978 620.151 50.8993 617.153 56.2141 614.837C61.5289 612.384 66.9118 611.157 72.3629 611.157C78.6316 611.157 84.2871 612.384 89.3294 614.837C94.3716 617.29 98.6643 620.765 102.207 625.262C105.751 629.759 108.408 635.21 110.18 641.615C112.088 647.884 113.041 654.902 113.041 662.67C113.041 671.391 111.815 679.159 109.362 685.973C106.909 692.651 103.638 698.374 99.5501 703.144C95.4618 707.777 90.7603 711.321 85.4455 713.774C80.267 716.226 74.8159 717.453 69.0923 717.453C59.8255 717.453 51.5126 713.774 44.1536 706.415H43.336L44.7669 722.972V752.612H14.7179ZM62.1422 692.923C67.8658 692.923 72.6355 690.606 76.4512 685.973C80.267 681.203 82.1748 673.572 82.1748 663.079C82.1748 644.818 75.9742 635.687 63.5731 635.687C57.1681 635.687 50.8993 638.821 44.7669 645.09V686.177C47.6287 688.63 50.5586 690.402 53.5567 691.492C56.6911 692.446 59.5529 692.923 62.1422 692.923Z" fill="#23BEC8"/>
</mask>
<g mask="url(#mask0)">
<rect x="-248" y="101" width="355" height="650" rx="11.3166" fill="#24CE70"/>
</g>
</svg>
